<?xml version="1.0" encoding="utf-8" standalone="no"?>
<!DOCTYPE svg PUBLIC "-//W3C//DTD SVG 1.1//EN"
  "http://www.w3.org/Graphics/SVG/1.1/DTD/svg11.dtd">
<svg xmlns:xlink="http://www.w3.org/1999/xlink" width="720pt" height="432pt" viewBox="0 0 720 432" xmlns="http://www.w3.org/2000/svg" version="1.1">
 <metadata>
  <rdf:RDF xmlns:dc="http://purl.org/dc/elements/1.1/" xmlns:cc="http://creativecommons.org/ns#" xmlns:rdf="http://www.w3.org/1999/02/22-rdf-syntax-ns#">
   <cc:Work>
    <dc:type rdf:resource="http://purl.org/dc/dcmitype/StillImage"/>
    <dc:date>2025-07-07T18:05:00.860025</dc:date>
    <dc:format>image/svg+xml</dc:format>
    <dc:creator>
     <cc:Agent>
      <dc:title>Matplotlib v3.10.0, https://matplotlib.org/</dc:title>
     </cc:Agent>
    </dc:creator>
   </cc:Work>
  </rdf:RDF>
 </metadata>
 <defs>
  <style type="text/css">*{stroke-linejoin: round; stroke-linecap: butt}</style>
 </defs>
 <g id="figure_1">
  <g id="patch_1">
   <path d="M 0 432 
L 720 432 
L 720 0 
L 0 0 
z
" style="fill: #ffffff"/>
  </g>
  <g id="axes_1">
   <g id="patch_2">
    <path d="M 90 384.48 
L 648 384.48 
L 648 51.84 
L 90 51.84 
z
" style="fill: #ffffff"/>
   </g>
   <g id="matplotlib.axis_1">
    <g id="xtick_1">
     <g id="line2d_1">
      <path d="M 108.921571 384.48 
L 108.921571 51.84 
" clip-path="url(#pe32f1ff12e)" style="fill: none; stroke: #b0b0b0; stroke-width: 0.8; stroke-linecap: square"/>
     </g>
     <g id="line2d_2">
      <defs>
       <path id="m2cdf6e4a3e" d="M 0 0 
L 0 3.5 
" style="stroke: #000000; stroke-width: 0.8"/>
      </defs>
      <g>
       <use xlink:href="#m2cdf6e4a3e" x="108.921571" y="384.48" style="stroke: #000000; stroke-width: 0.8"/>
      </g>
     </g>
     <g id="text_1">
      <!-- 0 -->
      <g transform="translate(105.740321 399.078438) scale(0.1 -0.1)">
       <defs>
        <path id="DejaVuSans-30" d="M 2034 4250 
Q 1547 4250 1301 3770 
Q 1056 3291 1056 2328 
Q 1056 1369 1301 889 
Q 1547 409 2034 409 
Q 2525 409 2770 889 
Q 3016 1369 3016 2328 
Q 3016 3291 2770 3770 
Q 2525 4250 2034 4250 
z
M 2034 4750 
Q 2819 4750 3233 4129 
Q 3647 3509 3647 2328 
Q 3647 1150 3233 529 
Q 2819 -91 2034 -91 
Q 1250 -91 836 529 
Q 422 1150 422 2328 
Q 422 3509 836 4129 
Q 1250 4750 2034 4750 
z
" transform="scale(0.015625)"/>
       </defs>
       <use xlink:href="#DejaVuSans-30"/>
      </g>
     </g>
    </g>
    <g id="xtick_2">
     <g id="line2d_3">
      <path d="M 194.476257 384.48 
L 194.476257 51.84 
" clip-path="url(#pe32f1ff12e)" style="fill: none; stroke: #b0b0b0; stroke-width: 0.8; stroke-linecap: square"/>
     </g>
     <g id="line2d_4">
      <g>
       <use xlink:href="#m2cdf6e4a3e" x="194.476257" y="384.48" style="stroke: #000000; stroke-width: 0.8"/>
      </g>
     </g>
     <g id="text_2">
      <!-- 50 -->
      <g transform="translate(188.113757 399.078438) scale(0.1 -0.1)">
       <defs>
        <path id="DejaVuSans-35" d="M 691 4666 
L 3169 4666 
L 3169 4134 
L 1269 4134 
L 1269 2991 
Q 1406 3038 1543 3061 
Q 1681 3084 1819 3084 
Q 2600 3084 3056 2656 
Q 3513 2228 3513 1497 
Q 3513 744 3044 326 
Q 2575 -91 1722 -91 
Q 1428 -91 1123 -41 
Q 819 9 494 109 
L 494 744 
Q 775 591 1075 516 
Q 1375 441 1709 441 
Q 2250 441 2565 725 
Q 2881 1009 2881 1497 
Q 2881 1984 2565 2268 
Q 2250 2553 1709 2553 
Q 1456 2553 1204 2497 
Q 953 2441 691 2322 
L 691 4666 
z
" transform="scale(0.015625)"/>
       </defs>
       <use xlink:href="#DejaVuSans-35"/>
       <use xlink:href="#DejaVuSans-30" transform="translate(63.623047 0)"/>
      </g>
     </g>
    </g>
    <g id="xtick_3">
     <g id="line2d_5">
      <path d="M 280.030943 384.48 
L 280.030943 51.84 
" clip-path="url(#pe32f1ff12e)" style="fill: none; stroke: #b0b0b0; stroke-width: 0.8; stroke-linecap: square"/>
     </g>
     <g id="line2d_6">
      <g>
       <use xlink:href="#m2cdf6e4a3e" x="280.030943" y="384.48" style="stroke: #000000; stroke-width: 0.8"/>
      </g>
     </g>
     <g id="text_3">
      <!-- 100 -->
      <g transform="translate(270.487193 399.078438) scale(0.1 -0.1)">
       <defs>
        <path id="DejaVuSans-31" d="M 794 531 
L 1825 531 
L 1825 4091 
L 703 3866 
L 703 4441 
L 1819 4666 
L 2450 4666 
L 2450 531 
L 3481 531 
L 3481 0 
L 794 0 
L 794 531 
z
" transform="scale(0.015625)"/>
       </defs>
       <use xlink:href="#DejaVuSans-31"/>
       <use xlink:href="#DejaVuSans-30" transform="translate(63.623047 0)"/>
       <use xlink:href="#DejaVuSans-30" transform="translate(127.246094 0)"/>
      </g>
     </g>
    </g>
    <g id="xtick_4">
     <g id="line2d_7">
      <path d="M 365.585629 384.48 
L 365.585629 51.84 
" clip-path="url(#pe32f1ff12e)" style="fill: none; stroke: #b0b0b0; stroke-width: 0.8; stroke-linecap: square"/>
     </g>
     <g id="line2d_8">
      <g>
       <use xlink:href="#m2cdf6e4a3e" x="365.585629" y="384.48" style="stroke: #000000; stroke-width: 0.8"/>
      </g>
     </g>
     <g id="text_4">
      <!-- 150 -->
      <g transform="translate(356.041879 399.078438) scale(0.1 -0.1)">
       <use xlink:href="#DejaVuSans-31"/>
       <use xlink:href="#DejaVuSans-35" transform="translate(63.623047 0)"/>
       <use xlink:href="#DejaVuSans-30" transform="translate(127.246094 0)"/>
      </g>
     </g>
    </g>
    <g id="xtick_5">
     <g id="line2d_9">
      <path d="M 451.140315 384.48 
L 451.140315 51.84 
" clip-path="url(#pe32f1ff12e)" style="fill: none; stroke: #b0b0b0; stroke-width: 0.8; stroke-linecap: square"/>
     </g>
     <g id="line2d_10">
      <g>
       <use xlink:href="#m2cdf6e4a3e" x="451.140315" y="384.48" style="stroke: #000000; stroke-width: 0.8"/>
      </g>
     </g>
     <g id="text_5">
      <!-- 200 -->
      <g transform="translate(441.596565 399.078438) scale(0.1 -0.1)">
       <defs>
        <path id="DejaVuSans-32" d="M 1228 531 
L 3431 531 
L 3431 0 
L 469 0 
L 469 531 
Q 828 903 1448 1529 
Q 2069 2156 2228 2338 
Q 2531 2678 2651 2914 
Q 2772 3150 2772 3378 
Q 2772 3750 2511 3984 
Q 2250 4219 1831 4219 
Q 1534 4219 1204 4116 
Q 875 4013 500 3803 
L 500 4441 
Q 881 4594 1212 4672 
Q 1544 4750 1819 4750 
Q 2544 4750 2975 4387 
Q 3406 4025 3406 3419 
Q 3406 3131 3298 2873 
Q 3191 2616 2906 2266 
Q 2828 2175 2409 1742 
Q 1991 1309 1228 531 
z
" transform="scale(0.015625)"/>
       </defs>
       <use xlink:href="#DejaVuSans-32"/>
       <use xlink:href="#DejaVuSans-30" transform="translate(63.623047 0)"/>
       <use xlink:href="#DejaVuSans-30" transform="translate(127.246094 0)"/>
      </g>
     </g>
    </g>
    <g id="xtick_6">
     <g id="line2d_11">
      <path d="M 536.695 384.48 
L 536.695 51.84 
" clip-path="url(#pe32f1ff12e)" style="fill: none; stroke: #b0b0b0; stroke-width: 0.8; stroke-linecap: square"/>
     </g>
     <g id="line2d_12">
      <g>
       <use xlink:href="#m2cdf6e4a3e" x="536.695" y="384.48" style="stroke: #000000; stroke-width: 0.8"/>
      </g>
     </g>
     <g id="text_6">
      <!-- 250 -->
      <g transform="translate(527.15125 399.078438) scale(0.1 -0.1)">
       <use xlink:href="#DejaVuSans-32"/>
       <use xlink:href="#DejaVuSans-35" transform="translate(63.623047 0)"/>
       <use xlink:href="#DejaVuSans-30" transform="translate(127.246094 0)"/>
      </g>
     </g>
    </g>
    <g id="xtick_7">
     <g id="line2d_13">
      <path d="M 622.249686 384.48 
L 622.249686 51.84 
" clip-path="url(#pe32f1ff12e)" style="fill: none; stroke: #b0b0b0; stroke-width: 0.8; stroke-linecap: square"/>
     </g>
     <g id="line2d_14">
      <g>
       <use xlink:href="#m2cdf6e4a3e" x="622.249686" y="384.48" style="stroke: #000000; stroke-width: 0.8"/>
      </g>
     </g>
     <g id="text_7">
      <!-- 300 -->
      <g transform="translate(612.705936 399.078438) scale(0.1 -0.1)">
       <defs>
        <path id="DejaVuSans-33" d="M 2597 2516 
Q 3050 2419 3304 2112 
Q 3559 1806 3559 1356 
Q 3559 666 3084 287 
Q 2609 -91 1734 -91 
Q 1441 -91 1130 -33 
Q 819 25 488 141 
L 488 750 
Q 750 597 1062 519 
Q 1375 441 1716 441 
Q 2309 441 2620 675 
Q 2931 909 2931 1356 
Q 2931 1769 2642 2001 
Q 2353 2234 1838 2234 
L 1294 2234 
L 1294 2753 
L 1863 2753 
Q 2328 2753 2575 2939 
Q 2822 3125 2822 3475 
Q 2822 3834 2567 4026 
Q 2313 4219 1838 4219 
Q 1578 4219 1281 4162 
Q 984 4106 628 3988 
L 628 4550 
Q 988 4650 1302 4700 
Q 1616 4750 1894 4750 
Q 2613 4750 3031 4423 
Q 3450 4097 3450 3541 
Q 3450 3153 3228 2886 
Q 3006 2619 2597 2516 
z
" transform="scale(0.015625)"/>
       </defs>
       <use xlink:href="#DejaVuSans-33"/>
       <use xlink:href="#DejaVuSans-30" transform="translate(63.623047 0)"/>
       <use xlink:href="#DejaVuSans-30" transform="translate(127.246094 0)"/>
      </g>
     </g>
    </g>
    <g id="text_8">
     <!-- Temperature (K) -->
     <g transform="translate(328.560938 412.756563) scale(0.1 -0.1)">
      <defs>
       <path id="DejaVuSans-54" d="M -19 4666 
L 3928 4666 
L 3928 4134 
L 2272 4134 
L 2272 0 
L 1638 0 
L 1638 4134 
L -19 4134 
L -19 4666 
z
" transform="scale(0.015625)"/>
       <path id="DejaVuSans-65" d="M 3597 1894 
L 3597 1613 
L 953 1613 
Q 991 1019 1311 708 
Q 1631 397 2203 397 
Q 2534 397 2845 478 
Q 3156 559 3463 722 
L 3463 178 
Q 3153 47 2828 -22 
Q 2503 -91 2169 -91 
Q 1331 -91 842 396 
Q 353 884 353 1716 
Q 353 2575 817 3079 
Q 1281 3584 2069 3584 
Q 2775 3584 3186 3129 
Q 3597 2675 3597 1894 
z
M 3022 2063 
Q 3016 2534 2758 2815 
Q 2500 3097 2075 3097 
Q 1594 3097 1305 2825 
Q 1016 2553 972 2059 
L 3022 2063 
z
" transform="scale(0.015625)"/>
       <path id="DejaVuSans-6d" d="M 3328 2828 
Q 3544 3216 3844 3400 
Q 4144 3584 4550 3584 
Q 5097 3584 5394 3201 
Q 5691 2819 5691 2113 
L 5691 0 
L 5113 0 
L 5113 2094 
Q 5113 2597 4934 2840 
Q 4756 3084 4391 3084 
Q 3944 3084 3684 2787 
Q 3425 2491 3425 1978 
L 3425 0 
L 2847 0 
L 2847 2094 
Q 2847 2600 2669 2842 
Q 2491 3084 2119 3084 
Q 1678 3084 1418 2786 
Q 1159 2488 1159 1978 
L 1159 0 
L 581 0 
L 581 3500 
L 1159 3500 
L 1159 2956 
Q 1356 3278 1631 3431 
Q 1906 3584 2284 3584 
Q 2666 3584 2933 3390 
Q 3200 3197 3328 2828 
z
" transform="scale(0.015625)"/>
       <path id="DejaVuSans-70" d="M 1159 525 
L 1159 -1331 
L 581 -1331 
L 581 3500 
L 1159 3500 
L 1159 2969 
Q 1341 3281 1617 3432 
Q 1894 3584 2278 3584 
Q 2916 3584 3314 3078 
Q 3713 2572 3713 1747 
Q 3713 922 3314 415 
Q 2916 -91 2278 -91 
Q 1894 -91 1617 61 
Q 1341 213 1159 525 
z
M 3116 1747 
Q 3116 2381 2855 2742 
Q 2594 3103 2138 3103 
Q 1681 3103 1420 2742 
Q 1159 2381 1159 1747 
Q 1159 1113 1420 752 
Q 1681 391 2138 391 
Q 2594 391 2855 752 
Q 3116 1113 3116 1747 
z
" transform="scale(0.015625)"/>
       <path id="DejaVuSans-72" d="M 2631 2963 
Q 2534 3019 2420 3045 
Q 2306 3072 2169 3072 
Q 1681 3072 1420 2755 
Q 1159 2438 1159 1844 
L 1159 0 
L 581 0 
L 581 3500 
L 1159 3500 
L 1159 2956 
Q 1341 3275 1631 3429 
Q 1922 3584 2338 3584 
Q 2397 3584 2469 3576 
Q 2541 3569 2628 3553 
L 2631 2963 
z
" transform="scale(0.015625)"/>
       <path id="DejaVuSans-61" d="M 2194 1759 
Q 1497 1759 1228 1600 
Q 959 1441 959 1056 
Q 959 750 1161 570 
Q 1363 391 1709 391 
Q 2188 391 2477 730 
Q 2766 1069 2766 1631 
L 2766 1759 
L 2194 1759 
z
M 3341 1997 
L 3341 0 
L 2766 0 
L 2766 531 
Q 2569 213 2275 61 
Q 1981 -91 1556 -91 
Q 1019 -91 701 211 
Q 384 513 384 1019 
Q 384 1609 779 1909 
Q 1175 2209 1959 2209 
L 2766 2209 
L 2766 2266 
Q 2766 2663 2505 2880 
Q 2244 3097 1772 3097 
Q 1472 3097 1187 3025 
Q 903 2953 641 2809 
L 641 3341 
Q 956 3463 1253 3523 
Q 1550 3584 1831 3584 
Q 2591 3584 2966 3190 
Q 3341 2797 3341 1997 
z
" transform="scale(0.015625)"/>
       <path id="DejaVuSans-74" d="M 1172 4494 
L 1172 3500 
L 2356 3500 
L 2356 3053 
L 1172 3053 
L 1172 1153 
Q 1172 725 1289 603 
Q 1406 481 1766 481 
L 2356 481 
L 2356 0 
L 1766 0 
Q 1100 0 847 248 
Q 594 497 594 1153 
L 594 3053 
L 172 3053 
L 172 3500 
L 594 3500 
L 594 4494 
L 1172 4494 
z
" transform="scale(0.015625)"/>
       <path id="DejaVuSans-75" d="M 544 1381 
L 544 3500 
L 1119 3500 
L 1119 1403 
Q 1119 906 1312 657 
Q 1506 409 1894 409 
Q 2359 409 2629 706 
Q 2900 1003 2900 1516 
L 2900 3500 
L 3475 3500 
L 3475 0 
L 2900 0 
L 2900 538 
Q 2691 219 2414 64 
Q 2138 -91 1772 -91 
Q 1169 -91 856 284 
Q 544 659 544 1381 
z
M 1991 3584 
L 1991 3584 
z
" transform="scale(0.015625)"/>
       <path id="DejaVuSans-20" transform="scale(0.015625)"/>
       <path id="DejaVuSans-28" d="M 1984 4856 
Q 1566 4138 1362 3434 
Q 1159 2731 1159 2009 
Q 1159 1288 1364 580 
Q 1569 -128 1984 -844 
L 1484 -844 
Q 1016 -109 783 600 
Q 550 1309 550 2009 
Q 550 2706 781 3412 
Q 1013 4119 1484 4856 
L 1984 4856 
z
" transform="scale(0.015625)"/>
       <path id="DejaVuSans-4b" d="M 628 4666 
L 1259 4666 
L 1259 2694 
L 3353 4666 
L 4166 4666 
L 1850 2491 
L 4331 0 
L 3500 0 
L 1259 2247 
L 1259 0 
L 628 0 
L 628 4666 
z
" transform="scale(0.015625)"/>
       <path id="DejaVuSans-29" d="M 513 4856 
L 1013 4856 
Q 1481 4119 1714 3412 
Q 1947 2706 1947 2009 
Q 1947 1309 1714 600 
Q 1481 -109 1013 -844 
L 513 -844 
Q 928 -128 1133 580 
Q 1338 1288 1338 2009 
Q 1338 2731 1133 3434 
Q 928 4138 513 4856 
z
" transform="scale(0.015625)"/>
      </defs>
      <use xlink:href="#DejaVuSans-54"/>
      <use xlink:href="#DejaVuSans-65" transform="translate(44.083984 0)"/>
      <use xlink:href="#DejaVuSans-6d" transform="translate(105.607422 0)"/>
      <use xlink:href="#DejaVuSans-70" transform="translate(203.019531 0)"/>
      <use xlink:href="#DejaVuSans-65" transform="translate(266.496094 0)"/>
      <use xlink:href="#DejaVuSans-72" transform="translate(328.019531 0)"/>
      <use xlink:href="#DejaVuSans-61" transform="translate(369.132812 0)"/>
      <use xlink:href="#DejaVuSans-74" transform="translate(430.412109 0)"/>
      <use xlink:href="#DejaVuSans-75" transform="translate(469.621094 0)"/>
      <use xlink:href="#DejaVuSans-72" transform="translate(533 0)"/>
      <use xlink:href="#DejaVuSans-65" transform="translate(571.863281 0)"/>
      <use xlink:href="#DejaVuSans-20" transform="translate(633.386719 0)"/>
      <use xlink:href="#DejaVuSans-28" transform="translate(665.173828 0)"/>
      <use xlink:href="#DejaVuSans-4b" transform="translate(704.1875 0)"/>
      <use xlink:href="#DejaVuSans-29" transform="translate(769.763672 0)"/>
     </g>
    </g>
   </g>
   <g id="matplotlib.axis_2">
    <g id="ytick_1">
     <g id="line2d_15">
      <path d="M 90 379.911867 
L 648 379.911867 
" clip-path="url(#pe32f1ff12e)" style="fill: none; stroke: #b0b0b0; stroke-width: 0.8; stroke-linecap: square"/>
     </g>
     <g id="line2d_16">
      <defs>
       <path id="m268eb2cbf9" d="M 0 0 
L -3.5 0 
" style="stroke: #000000; stroke-width: 0.8"/>
      </defs>
      <g>
       <use xlink:href="#m268eb2cbf9" x="90" y="379.911867" style="stroke: #000000; stroke-width: 0.8"/>
      </g>
     </g>
     <g id="text_9">
      <!-- 1.5 -->
      <g transform="translate(67.096875 383.711086) scale(0.1 -0.1)">
       <defs>
        <path id="DejaVuSans-2e" d="M 684 794 
L 1344 794 
L 1344 0 
L 684 0 
L 684 794 
z
" transform="scale(0.015625)"/>
       </defs>
       <use xlink:href="#DejaVuSans-31"/>
       <use xlink:href="#DejaVuSans-2e" transform="translate(63.623047 0)"/>
       <use xlink:href="#DejaVuSans-35" transform="translate(95.410156 0)"/>
      </g>
     </g>
    </g>
    <g id="ytick_2">
     <g id="line2d_17">
      <path d="M 90 335.547796 
L 648 335.547796 
" clip-path="url(#pe32f1ff12e)" style="fill: none; stroke: #b0b0b0; stroke-width: 0.8; stroke-linecap: square"/>
     </g>
     <g id="line2d_18">
      <g>
       <use xlink:href="#m268eb2cbf9" x="90" y="335.547796" style="stroke: #000000; stroke-width: 0.8"/>
      </g>
     </g>
     <g id="text_10">
      <!-- 2.0 -->
      <g transform="translate(67.096875 339.347015) scale(0.1 -0.1)">
       <use xlink:href="#DejaVuSans-32"/>
       <use xlink:href="#DejaVuSans-2e" transform="translate(63.623047 0)"/>
       <use xlink:href="#DejaVuSans-30" transform="translate(95.410156 0)"/>
      </g>
     </g>
    </g>
    <g id="ytick_3">
     <g id="line2d_19">
      <path d="M 90 291.183725 
L 648 291.183725 
" clip-path="url(#pe32f1ff12e)" style="fill: none; stroke: #b0b0b0; stroke-width: 0.8; stroke-linecap: square"/>
     </g>
     <g id="line2d_20">
      <g>
       <use xlink:href="#m268eb2cbf9" x="90" y="291.183725" style="stroke: #000000; stroke-width: 0.8"/>
      </g>
     </g>
     <g id="text_11">
      <!-- 2.5 -->
      <g transform="translate(67.096875 294.982944) scale(0.1 -0.1)">
       <use xlink:href="#DejaVuSans-32"/>
       <use xlink:href="#DejaVuSans-2e" transform="translate(63.623047 0)"/>
       <use xlink:href="#DejaVuSans-35" transform="translate(95.410156 0)"/>
      </g>
     </g>
    </g>
    <g id="ytick_4">
     <g id="line2d_21">
      <path d="M 90 246.819654 
L 648 246.819654 
" clip-path="url(#pe32f1ff12e)" style="fill: none; stroke: #b0b0b0; stroke-width: 0.8; stroke-linecap: square"/>
     </g>
     <g id="line2d_22">
      <g>
       <use xlink:href="#m268eb2cbf9" x="90" y="246.819654" style="stroke: #000000; stroke-width: 0.8"/>
      </g>
     </g>
     <g id="text_12">
      <!-- 3.0 -->
      <g transform="translate(67.096875 250.618872) scale(0.1 -0.1)">
       <use xlink:href="#DejaVuSans-33"/>
       <use xlink:href="#DejaVuSans-2e" transform="translate(63.623047 0)"/>
       <use xlink:href="#DejaVuSans-30" transform="translate(95.410156 0)"/>
      </g>
     </g>
    </g>
    <g id="ytick_5">
     <g id="line2d_23">
      <path d="M 90 202.455582 
L 648 202.455582 
" clip-path="url(#pe32f1ff12e)" style="fill: none; stroke: #b0b0b0; stroke-width: 0.8; stroke-linecap: square"/>
     </g>
     <g id="line2d_24">
      <g>
       <use xlink:href="#m268eb2cbf9" x="90" y="202.455582" style="stroke: #000000; stroke-width: 0.8"/>
      </g>
     </g>
     <g id="text_13">
      <!-- 3.5 -->
      <g transform="translate(67.096875 206.254801) scale(0.1 -0.1)">
       <use xlink:href="#DejaVuSans-33"/>
       <use xlink:href="#DejaVuSans-2e" transform="translate(63.623047 0)"/>
       <use xlink:href="#DejaVuSans-35" transform="translate(95.410156 0)"/>
      </g>
     </g>
    </g>
    <g id="ytick_6">
     <g id="line2d_25">
      <path d="M 90 158.091511 
L 648 158.091511 
" clip-path="url(#pe32f1ff12e)" style="fill: none; stroke: #b0b0b0; stroke-width: 0.8; stroke-linecap: square"/>
     </g>
     <g id="line2d_26">
      <g>
       <use xlink:href="#m268eb2cbf9" x="90" y="158.091511" style="stroke: #000000; stroke-width: 0.8"/>
      </g>
     </g>
     <g id="text_14">
      <!-- 4.0 -->
      <g transform="translate(67.096875 161.89073) scale(0.1 -0.1)">
       <defs>
        <path id="DejaVuSans-34" d="M 2419 4116 
L 825 1625 
L 2419 1625 
L 2419 4116 
z
M 2253 4666 
L 3047 4666 
L 3047 1625 
L 3713 1625 
L 3713 1100 
L 3047 1100 
L 3047 0 
L 2419 0 
L 2419 1100 
L 313 1100 
L 313 1709 
L 2253 4666 
z
" transform="scale(0.015625)"/>
       </defs>
       <use xlink:href="#DejaVuSans-34"/>
       <use xlink:href="#DejaVuSans-2e" transform="translate(63.623047 0)"/>
       <use xlink:href="#DejaVuSans-30" transform="translate(95.410156 0)"/>
      </g>
     </g>
    </g>
    <g id="ytick_7">
     <g id="line2d_27">
      <path d="M 90 113.72744 
L 648 113.72744 
" clip-path="url(#pe32f1ff12e)" style="fill: none; stroke: #b0b0b0; stroke-width: 0.8; stroke-linecap: square"/>
     </g>
     <g id="line2d_28">
      <g>
       <use xlink:href="#m268eb2cbf9" x="90" y="113.72744" style="stroke: #000000; stroke-width: 0.8"/>
      </g>
     </g>
     <g id="text_15">
      <!-- 4.5 -->
      <g transform="translate(67.096875 117.526659) scale(0.1 -0.1)">
       <use xlink:href="#DejaVuSans-34"/>
       <use xlink:href="#DejaVuSans-2e" transform="translate(63.623047 0)"/>
       <use xlink:href="#DejaVuSans-35" transform="translate(95.410156 0)"/>
      </g>
     </g>
    </g>
    <g id="ytick_8">
     <g id="line2d_29">
      <path d="M 90 69.363369 
L 648 69.363369 
" clip-path="url(#pe32f1ff12e)" style="fill: none; stroke: #b0b0b0; stroke-width: 0.8; stroke-linecap: square"/>
     </g>
     <g id="line2d_30">
      <g>
       <use xlink:href="#m268eb2cbf9" x="90" y="69.363369" style="stroke: #000000; stroke-width: 0.8"/>
      </g>
     </g>
     <g id="text_16">
      <!-- 5.0 -->
      <g transform="translate(67.096875 73.162588) scale(0.1 -0.1)">
       <use xlink:href="#DejaVuSans-35"/>
       <use xlink:href="#DejaVuSans-2e" transform="translate(63.623047 0)"/>
       <use xlink:href="#DejaVuSans-30" transform="translate(95.410156 0)"/>
      </g>
     </g>
    </g>
    <g id="text_17">
     <!-- Volume Susceptibility (emu/cm³/Oe) -->
     <g transform="translate(61.017187 308.515469) rotate(-90) scale(0.1 -0.1)">
      <defs>
       <path id="DejaVuSans-56" d="M 1831 0 
L 50 4666 
L 709 4666 
L 2188 738 
L 3669 4666 
L 4325 4666 
L 2547 0 
L 1831 0 
z
" transform="scale(0.015625)"/>
       <path id="DejaVuSans-6f" d="M 1959 3097 
Q 1497 3097 1228 2736 
Q 959 2375 959 1747 
Q 959 1119 1226 758 
Q 1494 397 1959 397 
Q 2419 397 2687 759 
Q 2956 1122 2956 1747 
Q 2956 2369 2687 2733 
Q 2419 3097 1959 3097 
z
M 1959 3584 
Q 2709 3584 3137 3096 
Q 3566 2609 3566 1747 
Q 3566 888 3137 398 
Q 2709 -91 1959 -91 
Q 1206 -91 779 398 
Q 353 888 353 1747 
Q 353 2609 779 3096 
Q 1206 3584 1959 3584 
z
" transform="scale(0.015625)"/>
       <path id="DejaVuSans-6c" d="M 603 4863 
L 1178 4863 
L 1178 0 
L 603 0 
L 603 4863 
z
" transform="scale(0.015625)"/>
       <path id="DejaVuSans-53" d="M 3425 4513 
L 3425 3897 
Q 3066 4069 2747 4153 
Q 2428 4238 2131 4238 
Q 1616 4238 1336 4038 
Q 1056 3838 1056 3469 
Q 1056 3159 1242 3001 
Q 1428 2844 1947 2747 
L 2328 2669 
Q 3034 2534 3370 2195 
Q 3706 1856 3706 1288 
Q 3706 609 3251 259 
Q 2797 -91 1919 -91 
Q 1588 -91 1214 -16 
Q 841 59 441 206 
L 441 856 
Q 825 641 1194 531 
Q 1563 422 1919 422 
Q 2459 422 2753 634 
Q 3047 847 3047 1241 
Q 3047 1584 2836 1778 
Q 2625 1972 2144 2069 
L 1759 2144 
Q 1053 2284 737 2584 
Q 422 2884 422 3419 
Q 422 4038 858 4394 
Q 1294 4750 2059 4750 
Q 2388 4750 2728 4690 
Q 3069 4631 3425 4513 
z
" transform="scale(0.015625)"/>
       <path id="DejaVuSans-73" d="M 2834 3397 
L 2834 2853 
Q 2591 2978 2328 3040 
Q 2066 3103 1784 3103 
Q 1356 3103 1142 2972 
Q 928 2841 928 2578 
Q 928 2378 1081 2264 
Q 1234 2150 1697 2047 
L 1894 2003 
Q 2506 1872 2764 1633 
Q 3022 1394 3022 966 
Q 3022 478 2636 193 
Q 2250 -91 1575 -91 
Q 1294 -91 989 -36 
Q 684 19 347 128 
L 347 722 
Q 666 556 975 473 
Q 1284 391 1588 391 
Q 1994 391 2212 530 
Q 2431 669 2431 922 
Q 2431 1156 2273 1281 
Q 2116 1406 1581 1522 
L 1381 1569 
Q 847 1681 609 1914 
Q 372 2147 372 2553 
Q 372 3047 722 3315 
Q 1072 3584 1716 3584 
Q 2034 3584 2315 3537 
Q 2597 3491 2834 3397 
z
" transform="scale(0.015625)"/>
       <path id="DejaVuSans-63" d="M 3122 3366 
L 3122 2828 
Q 2878 2963 2633 3030 
Q 2388 3097 2138 3097 
Q 1578 3097 1268 2742 
Q 959 2388 959 1747 
Q 959 1106 1268 751 
Q 1578 397 2138 397 
Q 2388 397 2633 464 
Q 2878 531 3122 666 
L 3122 134 
Q 2881 22 2623 -34 
Q 2366 -91 2075 -91 
Q 1284 -91 818 406 
Q 353 903 353 1747 
Q 353 2603 823 3093 
Q 1294 3584 2113 3584 
Q 2378 3584 2631 3529 
Q 2884 3475 3122 3366 
z
" transform="scale(0.015625)"/>
       <path id="DejaVuSans-69" d="M 603 3500 
L 1178 3500 
L 1178 0 
L 603 0 
L 603 3500 
z
M 603 4863 
L 1178 4863 
L 1178 4134 
L 603 4134 
L 603 4863 
z
" transform="scale(0.015625)"/>
       <path id="DejaVuSans-62" d="M 3116 1747 
Q 3116 2381 2855 2742 
Q 2594 3103 2138 3103 
Q 1681 3103 1420 2742 
Q 1159 2381 1159 1747 
Q 1159 1113 1420 752 
Q 1681 391 2138 391 
Q 2594 391 2855 752 
Q 3116 1113 3116 1747 
z
M 1159 2969 
Q 1341 3281 1617 3432 
Q 1894 3584 2278 3584 
Q 2916 3584 3314 3078 
Q 3713 2572 3713 1747 
Q 3713 922 3314 415 
Q 2916 -91 2278 -91 
Q 1894 -91 1617 61 
Q 1341 213 1159 525 
L 1159 0 
L 581 0 
L 581 4863 
L 1159 4863 
L 1159 2969 
z
" transform="scale(0.015625)"/>
       <path id="DejaVuSans-79" d="M 2059 -325 
Q 1816 -950 1584 -1140 
Q 1353 -1331 966 -1331 
L 506 -1331 
L 506 -850 
L 844 -850 
Q 1081 -850 1212 -737 
Q 1344 -625 1503 -206 
L 1606 56 
L 191 3500 
L 800 3500 
L 1894 763 
L 2988 3500 
L 3597 3500 
L 2059 -325 
z
" transform="scale(0.015625)"/>
       <path id="DejaVuSans-2f" d="M 1625 4666 
L 2156 4666 
L 531 -594 
L 0 -594 
L 1625 4666 
z
" transform="scale(0.015625)"/>
       <path id="DejaVuSans-b3" d="M 1638 3500 
Q 1925 3444 2083 3273 
Q 2241 3103 2241 2847 
Q 2241 2459 1944 2250 
Q 1647 2041 1094 2041 
Q 916 2041 720 2073 
Q 525 2106 306 2169 
L 306 2547 
Q 469 2463 655 2422 
Q 841 2381 1050 2381 
Q 1391 2381 1578 2504 
Q 1766 2628 1766 2847 
Q 1766 3078 1592 3197 
Q 1419 3316 1081 3316 
L 813 3316 
L 813 3653 
L 1106 3653 
Q 1400 3653 1551 3751 
Q 1703 3850 1703 4038 
Q 1703 4219 1547 4314 
Q 1391 4409 1094 4409 
Q 969 4409 809 4381 
Q 650 4353 397 4281 
L 397 4641 
Q 625 4694 825 4722 
Q 1025 4750 1197 4750 
Q 1647 4750 1911 4565 
Q 2175 4381 2175 4072 
Q 2175 3856 2034 3706 
Q 1894 3556 1638 3500 
z
" transform="scale(0.015625)"/>
       <path id="DejaVuSans-4f" d="M 2522 4238 
Q 1834 4238 1429 3725 
Q 1025 3213 1025 2328 
Q 1025 1447 1429 934 
Q 1834 422 2522 422 
Q 3209 422 3611 934 
Q 4013 1447 4013 2328 
Q 4013 3213 3611 3725 
Q 3209 4238 2522 4238 
z
M 2522 4750 
Q 3503 4750 4090 4092 
Q 4678 3434 4678 2328 
Q 4678 1225 4090 567 
Q 3503 -91 2522 -91 
Q 1538 -91 948 565 
Q 359 1222 359 2328 
Q 359 3434 948 4092 
Q 1538 4750 2522 4750 
z
" transform="scale(0.015625)"/>
      </defs>
      <use xlink:href="#DejaVuSans-56"/>
      <use xlink:href="#DejaVuSans-6f" transform="translate(60.658203 0)"/>
      <use xlink:href="#DejaVuSans-6c" transform="translate(121.839844 0)"/>
      <use xlink:href="#DejaVuSans-75" transform="translate(149.623047 0)"/>
      <use xlink:href="#DejaVuSans-6d" transform="translate(213.001953 0)"/>
      <use xlink:href="#DejaVuSans-65" transform="translate(310.414062 0)"/>
      <use xlink:href="#DejaVuSans-20" transform="translate(371.9375 0)"/>
      <use xlink:href="#DejaVuSans-53" transform="translate(403.724609 0)"/>
      <use xlink:href="#DejaVuSans-75" transform="translate(467.201172 0)"/>
      <use xlink:href="#DejaVuSans-73" transform="translate(530.580078 0)"/>
      <use xlink:href="#DejaVuSans-63" transform="translate(582.679688 0)"/>
      <use xlink:href="#DejaVuSans-65" transform="translate(637.660156 0)"/>
      <use xlink:href="#DejaVuSans-70" transform="translate(699.183594 0)"/>
      <use xlink:href="#DejaVuSans-74" transform="translate(762.660156 0)"/>
      <use xlink:href="#DejaVuSans-69" transform="translate(801.869141 0)"/>
      <use xlink:href="#DejaVuSans-62" transform="translate(829.652344 0)"/>
      <use xlink:href="#DejaVuSans-69" transform="translate(893.128906 0)"/>
      <use xlink:href="#DejaVuSans-6c" transform="translate(920.912109 0)"/>
      <use xlink:href="#DejaVuSans-69" transform="translate(948.695312 0)"/>
      <use xlink:href="#DejaVuSans-74" transform="translate(976.478516 0)"/>
      <use xlink:href="#DejaVuSans-79" transform="translate(1015.6875 0)"/>
      <use xlink:href="#DejaVuSans-20" transform="translate(1074.867188 0)"/>
      <use xlink:href="#DejaVuSans-28" transform="translate(1106.654297 0)"/>
      <use xlink:href="#DejaVuSans-65" transform="translate(1145.667969 0)"/>
      <use xlink:href="#DejaVuSans-6d" transform="translate(1207.191406 0)"/>
      <use xlink:href="#DejaVuSans-75" transform="translate(1304.603516 0)"/>
      <use xlink:href="#DejaVuSans-2f" transform="translate(1367.982422 0)"/>
      <use xlink:href="#DejaVuSans-63" transform="translate(1401.673828 0)"/>
      <use xlink:href="#DejaVuSans-6d" transform="translate(1456.654297 0)"/>
      <use xlink:href="#DejaVuSans-b3" transform="translate(1554.066406 0)"/>
      <use xlink:href="#DejaVuSans-2f" transform="translate(1594.154297 0)"/>
      <use xlink:href="#DejaVuSans-4f" transform="translate(1627.845703 0)"/>
      <use xlink:href="#DejaVuSans-65" transform="translate(1706.556641 0)"/>
      <use xlink:href="#DejaVuSans-29" transform="translate(1768.080078 0)"/>
     </g>
    </g>
    <g id="text_18">
     <!-- 1e−6 -->
     <g transform="translate(90 48.84) scale(0.1 -0.1)">
      <defs>
       <path id="DejaVuSans-2212" d="M 678 2272 
L 4684 2272 
L 4684 1741 
L 678 1741 
L 678 2272 
z
" transform="scale(0.015625)"/>
       <path id="DejaVuSans-36" d="M 2113 2584 
Q 1688 2584 1439 2293 
Q 1191 2003 1191 1497 
Q 1191 994 1439 701 
Q 1688 409 2113 409 
Q 2538 409 2786 701 
Q 3034 994 3034 1497 
Q 3034 2003 2786 2293 
Q 2538 2584 2113 2584 
z
M 3366 4563 
L 3366 3988 
Q 3128 4100 2886 4159 
Q 2644 4219 2406 4219 
Q 1781 4219 1451 3797 
Q 1122 3375 1075 2522 
Q 1259 2794 1537 2939 
Q 1816 3084 2150 3084 
Q 2853 3084 3261 2657 
Q 3669 2231 3669 1497 
Q 3669 778 3244 343 
Q 2819 -91 2113 -91 
Q 1303 -91 875 529 
Q 447 1150 447 2328 
Q 447 3434 972 4092 
Q 1497 4750 2381 4750 
Q 2619 4750 2861 4703 
Q 3103 4656 3366 4563 
z
" transform="scale(0.015625)"/>
      </defs>
      <use xlink:href="#DejaVuSans-31"/>
      <use xlink:href="#DejaVuSans-65" transform="translate(63.623047 0)"/>
      <use xlink:href="#DejaVuSans-2212" transform="translate(125.146484 0)"/>
      <use xlink:href="#DejaVuSans-36" transform="translate(208.935547 0)"/>
     </g>
    </g>
   </g>
   <g id="line2d_31">
    <path d="M 117.498879 108.816172 
L 117.171549 102.511292 
L 116.261701 121.567143 
L 115.363636 136.966844 
L 116.09352 105.950903 
L 117.842394 120.818591 
L 118.759129 122.545077 
L 118.987038 107.162182 
L 119.105604 128.876431 
L 119.618882 109.924693 
L 120.068317 131.463049 
L 120.301385 114.437219 
L 120.508941 114.688722 
L 120.73608 128.980662 
L 120.969882 118.249333 
L 121.203173 128.438652 
L 121.423953 129.573935 
L 121.633615 131.821399 
L 121.856822 115.641095 
L 122.122751 123.183814 
L 122.332035 120.626587 
L 122.549653 115.666643 
L 122.806597 114.438251 
L 123.238358 129.764354 
L 123.480689 127.520651 
L 123.701924 131.604021 
L 123.919569 111.295787 
L 124.142739 122.211314 
L 124.370902 124.62807 
L 124.603417 96.262845 
L 124.829685 120.797032 
L 125.048208 111.87462 
L 125.293093 109.475583 
L 125.501235 130.317927 
L 125.742957 123.437813 
L 125.964718 128.590684 
L 126.185074 120.496873 
L 126.420375 127.187476 
L 126.640419 121.324469 
L 126.878287 120.584279 
L 127.120648 116.503695 
L 127.341009 103.800373 
L 127.551607 136.344216 
L 127.795489 109.643084 
L 128.004326 121.805445 
L 128.247578 106.963154 
L 128.485079 103.198697 
L 128.692562 110.42759 
L 128.915415 110.623515 
L 129.147745 104.303476 
L 129.370233 108.395024 
L 129.600111 127.460481 
L 129.827529 102.164885 
L 130.065804 116.42125 
L 130.292896 95.303519 
L 130.735027 124.649336 
L 130.966437 103.948944 
L 131.207379 121.883687 
L 131.429446 116.873473 
L 131.652678 117.603999 
L 131.871868 126.723427 
L 132.091315 90.880159 
L 132.346269 98.908883 
L 132.569792 100.576151 
L 132.794226 85.949072 
L 133.006237 92.386255 
L 133.248909 87.680255 
L 133.471919 102.308079 
L 133.690626 99.515381 
L 133.905421 128.223979 
L 134.161959 102.204975 
L 134.377329 104.323421 
L 134.617458 100.708547 
L 135.066329 112.004769 
L 135.307712 91.029203 
L 135.538414 114.515449 
L 135.763876 87.001105 
L 135.985629 113.333887 
L 136.194684 91.474871 
L 136.415985 97.541691 
L 136.612422 98.195955 
L 136.842209 107.464429 
L 137.069914 107.90342 
L 137.305191 102.814966 
L 137.553914 106.299082 
L 137.794984 100.911507 
L 138.039 89.82366 
L 138.25509 96.95521 
L 138.455072 94.561332 
L 138.657902 94.510436 
L 138.906514 90.836067 
L 139.122376 101.979962 
L 139.371514 76.894712 
L 139.609269 102.06834 
L 139.861887 101.354523 
L 140.103657 97.343904 
L 140.331297 76.014636 
L 140.580258 105.063432 
L 141.054754 94.755203 
L 141.274124 100.049328 
L 141.496834 94.897633 
L 141.693837 122.348559 
L 141.868245 97.744927 
L 142.087617 86.131263 
L 142.27989 106.092513 
L 142.524933 92.146408 
L 142.746605 101.39974 
L 142.982295 88.842234 
L 143.210142 87.584802 
L 143.435286 97.558703 
L 143.683887 114.482217 
L 143.891599 97.05513 
L 144.126696 105.146481 
L 144.348681 88.874882 
L 144.808931 99.112777 
L 145.043428 104.356591 
L 145.267251 102.598369 
L 145.509107 99.225284 
L 146.090636 111.524261 
L 146.641681 102.679836 
L 146.660945 98.395741 
L 146.546329 105.416373 
L 146.516592 83.736763 
L 146.654757 66.96 
L 146.896657 100.792846 
L 147.150264 98.178387 
L 147.438166 99.046653 
L 147.675647 85.747883 
L 147.904339 87.930454 
L 148.123103 85.804878 
L 148.333917 99.347848 
L 148.550639 79.044852 
L 149.01721 97.443144 
L 149.237314 108.061816 
L 149.48421 86.38186 
L 149.69207 111.913128 
L 149.919401 88.375728 
L 150.144686 107.124446 
L 150.376254 104.638487 
L 150.605912 107.08159 
L 150.84471 86.069103 
L 151.0551 106.574401 
L 151.502015 87.739383 
L 151.711254 90.018464 
L 151.941415 97.947632 
L 152.164871 110.530789 
L 152.388043 99.375276 
L 152.874328 103.492287 
L 153.084809 102.514635 
L 153.33154 105.141516 
L 153.551518 96.077826 
L 153.774613 107.248491 
L 153.988182 92.156224 
L 154.462125 103.257509 
L 154.682679 99.529652 
L 154.901226 103.551271 
L 155.122729 105.329827 
L 155.344255 100.387681 
L 155.563185 92.199149 
L 155.821486 91.408781 
L 156.028856 88.348299 
L 156.25574 95.697706 
L 156.492997 93.745641 
L 156.698263 107.532571 
L 156.946397 76.491737 
L 157.154647 111.128626 
L 157.372532 97.662419 
L 157.606939 108.121009 
L 157.84223 102.930925 
L 158.059164 87.317855 
L 158.291511 102.374389 
L 158.7388 91.661847 
L 158.9655 115.730408 
L 159.212862 101.496865 
L 159.409838 104.679988 
L 159.884139 93.28477 
L 160.331013 97.704518 
L 160.55574 79.602574 
L 160.778011 80.541424 
L 161.018208 109.773252 
L 161.22628 103.685764 
L 161.452677 92.046474 
L 161.675563 97.406045 
L 161.920606 88.746278 
L 162.134986 110.555387 
L 162.356707 86.818212 
L 162.580921 118.590596 
L 162.799114 104.413527 
L 163.259635 95.17612 
L 163.489305 105.480946 
L 163.710391 92.885594 
L 163.947714 86.079668 
L 164.1832 103.707493 
L 164.397762 106.543844 
L 164.616075 106.521258 
L 164.838414 87.077072 
L 165.308873 93.538039 
L 165.525227 83.358345 
L 165.755801 102.700993 
L 165.989772 77.868377 
L 166.206547 103.573798 
L 166.648442 72.756188 
L 166.873644 100.728776 
L 167.095918 99.879104 
L 167.330369 83.039177 
L 167.538721 92.8426 
L 167.789575 98.028218 
L 168.003292 90.485605 
L 168.236483 91.351575 
L 168.451124 112.084791 
L 168.664789 76.645254 
L 168.913671 89.693087 
L 169.143958 112.981849 
L 169.350159 94.269836 
L 169.58928 101.626212 
L 169.810902 90.764583 
L 170.020957 91.080578 
L 170.250591 81.271373 
L 170.711529 112.198938 
L 170.942589 107.440823 
L 171.184475 84.284336 
L 171.391652 86.990394 
L 171.602255 80.305354 
L 171.833162 95.692181 
L 172.079767 88.078059 
L 172.532869 93.826418 
L 172.742921 82.299845 
L 172.98012 77.158894 
L 173.204516 93.025683 
L 173.410077 81.210938 
L 173.630445 99.013299 
L 173.858891 81.922999 
L 174.1022 86.241601 
L 174.316243 95.207046 
L 174.53681 98.287621 
L 174.761934 90.290216 
L 174.995804 97.502131 
L 175.222112 109.110341 
L 175.443675 92.288514 
L 175.694558 91.286868 
L 175.89481 86.863983 
L 176.123827 94.981946 
L 176.357752 87.013201 
L 176.581325 93.528029 
L 176.817836 94.169853 
L 177.041921 90.365079 
L 177.269225 80.669081 
L 177.493784 95.742935 
L 177.714338 91.181551 
L 177.935552 95.661608 
L 178.167738 96.782017 
L 178.396317 112.921322 
L 178.61104 92.762859 
L 178.851049 87.008857 
L 179.05645 97.356365 
L 179.27705 95.68382 
L 179.494889 96.324023 
L 179.737943 99.168266 
L 179.98321 105.066232 
L 180.185142 102.070916 
L 180.420281 102.213457 
L 180.643502 108.32181 
L 180.87948 93.813307 
L 181.101481 98.774534 
L 181.304525 76.665254 
L 181.540598 83.432456 
L 181.986485 124.574864 
L 182.231194 98.485895 
L 182.439411 103.258063 
L 182.666072 95.188776 
L 182.901088 111.20545 
L 183.346361 91.07416 
L 183.568527 91.899533 
L 184.020631 99.851445 
L 184.247991 97.575011 
L 184.484785 104.694335 
L 184.706181 96.535011 
L 184.924862 100.689394 
L 185.14776 83.886225 
L 185.378135 101.077276 
L 185.606593 107.313335 
L 185.833447 98.622998 
L 186.276749 105.230336 
L 186.493553 117.729467 
L 186.725739 104.050053 
L 186.970967 101.706963 
L 187.180255 91.550162 
L 187.400982 109.673187 
L 187.622316 104.860025 
L 187.846265 118.257747 
L 188.067165 111.597582 
L 188.285468 123.893622 
L 188.528636 81.021015 
L 188.754076 112.488009 
L 188.979183 113.218382 
L 189.191732 88.569883 
L 189.433245 102.641337 
L 189.640118 97.638204 
L 189.872105 102.925422 
L 190.094762 90.812082 
L 190.315792 88.438387 
L 190.552348 110.782313 
L 190.777945 107.846133 
L 191.002579 108.822174 
L 191.228215 87.239633 
L 191.455594 95.412055 
L 191.66778 96.425583 
L 191.901255 105.780749 
L 192.13301 99.226723 
L 192.353545 96.888489 
L 192.573156 112.499309 
L 192.803064 112.635791 
L 193.014761 110.799312 
L 193.245077 103.219075 
L 193.478014 101.286992 
L 193.712145 122.656223 
L 193.912223 83.157943 
L 194.131896 109.09745 
L 194.385094 112.286854 
L 194.599215 90.674094 
L 194.814479 121.020367 
L 195.06533 97.333632 
L 195.271351 112.59248 
L 195.503067 111.515971 
L 195.707649 97.877757 
L 195.966016 109.136749 
L 196.184949 102.01276 
L 196.401779 102.035358 
L 196.621227 104.761245 
L 196.871935 99.700071 
L 197.073041 101.484238 
L 197.314558 79.010006 
L 197.530265 104.363905 
L 197.754501 96.918683 
L 197.977161 105.1737 
L 198.20482 74.89976 
L 198.425267 104.66313 
L 198.643582 114.495738 
L 199.10893 88.128467 
L 199.316374 95.271691 
L 199.541223 97.116487 
L 199.76466 97.624918 
L 199.981542 89.619509 
L 200.202361 125.119438 
L 200.66999 105.861184 
L 200.905335 112.144056 
L 201.129457 102.582743 
L 201.774521 90.512068 
L 202.011456 114.100528 
L 202.247633 115.624125 
L 202.465436 93.476694 
L 202.695325 114.867985 
L 202.898986 97.315562 
L 203.136985 112.817992 
L 203.826839 103.179444 
L 204.052743 105.654932 
L 204.266793 115.196388 
L 204.710196 101.716363 
L 204.915268 127.180158 
L 205.143358 106.718583 
L 205.399809 128.626899 
L 205.609792 100.387244 
L 205.835059 102.45944 
L 206.059811 133.193864 
L 206.274882 108.357771 
L 206.498132 129.183936 
L 207.176571 110.780358 
L 207.421974 114.506466 
L 207.64122 122.656707 
L 207.870524 121.525533 
L 208.098451 126.353084 
L 208.322217 121.075272 
L 208.550056 126.165852 
L 208.769882 116.632211 
L 209.226245 121.901028 
L 209.452864 121.968227 
L 209.663487 111.913143 
L 209.889961 119.022277 
L 210.11185 107.791983 
L 210.365394 109.223589 
L 210.582704 120.965695 
L 210.805086 120.087189 
L 211.02473 128.104764 
L 211.245803 116.74376 
L 211.465646 129.022472 
L 211.694314 132.255317 
L 211.940524 115.28647 
L 212.398685 122.436935 
L 212.627454 115.057533 
L 212.855126 116.848426 
L 213.077867 124.43789 
L 213.296124 118.20969 
L 213.512814 135.271348 
L 213.733525 124.885531 
L 213.970294 88.08972 
L 214.193051 128.120682 
L 214.403778 140.617941 
L 214.628762 117.046406 
L 214.883153 134.69448 
L 215.319135 122.133953 
L 215.549389 124.94758 
L 215.778328 124.434053 
L 216.000628 131.784766 
L 216.246417 131.487724 
L 216.453737 121.604479 
L 216.683446 127.760915 
L 216.911105 107.839791 
L 217.361414 137.041451 
L 217.590457 136.671055 
L 218.035861 117.317914 
L 218.255665 117.471032 
L 218.489202 136.145373 
L 218.725206 89.851047 
L 219.172725 141.408376 
L 219.396912 127.579627 
L 219.623416 120.858959 
L 219.850592 125.342165 
L 220.075549 112.158176 
L 220.319677 130.477274 
L 220.517976 124.483559 
L 220.982257 129.138907 
L 221.199107 133.913917 
L 221.439593 135.507542 
L 221.646397 153.443204 
L 221.869292 120.279346 
L 222.116115 133.780139 
L 222.332306 112.644585 
L 222.566825 120.188612 
L 222.792592 117.63076 
L 223.014892 143.334946 
L 223.451993 119.810862 
L 223.673145 148.396027 
L 223.918793 127.064327 
L 224.138072 127.715916 
L 224.369445 129.62811 
L 224.578436 133.506744 
L 224.811396 125.101327 
L 225.046509 125.221608 
L 225.273829 135.392293 
L 225.493466 134.112665 
L 225.726308 121.139595 
L 225.956755 143.224618 
L 226.179525 124.742114 
L 226.415226 118.883379 
L 226.625314 139.441562 
L 226.840199 127.601566 
L 227.064993 129.921597 
L 227.301256 136.47822 
L 227.53475 119.95133 
L 227.993294 138.29513 
L 228.207918 138.591782 
L 228.429833 131.849591 
L 228.667825 141.082997 
L 228.878886 113.949606 
L 229.107622 136.923078 
L 229.333682 130.768748 
L 229.55877 129.558288 
L 229.790515 135.64647 
L 230.029003 136.807021 
L 230.478584 146.905868 
L 230.690754 122.178743 
L 230.922062 138.428066 
L 231.16508 111.267228 
L 231.378425 124.019515 
L 231.603167 126.585586 
L 231.844273 115.595723 
L 232.067604 131.080483 
L 232.287464 136.298341 
L 232.50404 116.55677 
L 232.746653 116.287569 
L 232.955527 120.735703 
L 233.205562 111.391701 
L 233.881333 140.581579 
L 234.330647 127.905631 
L 234.55157 130.294355 
L 234.773505 119.573187 
L 235.003064 146.852952 
L 235.449786 109.128801 
L 235.693861 120.757205 
L 235.915992 121.8641 
L 236.149285 118.330646 
L 236.368028 121.784092 
L 236.610556 134.137334 
L 236.812726 114.471261 
L 237.051789 127.293163 
L 237.262999 108.718222 
L 237.517486 126.880374 
L 237.724734 128.310441 
L 237.949215 109.303268 
L 238.183728 138.935383 
L 238.410154 123.298259 
L 238.866856 117.174535 
L 239.090188 122.960254 
L 239.312808 120.555917 
L 239.541688 134.343526 
L 239.77156 103.784898 
L 239.995499 125.020437 
L 240.227825 135.714102 
L 240.442958 135.643706 
L 240.689958 123.190083 
L 240.901489 118.867471 
L 241.12266 145.728674 
L 241.365861 138.587235 
L 241.577195 122.231055 
L 241.790377 130.095193 
L 242.027677 129.389493 
L 242.259148 121.597404 
L 242.490359 126.486315 
L 242.710688 136.205209 
L 242.950827 128.769436 
L 243.173513 130.804873 
L 243.397164 128.132395 
L 243.618675 140.559956 
L 243.845179 117.965028 
L 244.071983 135.537777 
L 244.286947 124.778263 
L 244.509476 129.954427 
L 244.762729 125.075658 
L 244.976478 141.362739 
L 245.202682 118.850808 
L 245.442645 109.626127 
L 245.647048 119.670589 
L 245.899158 115.106686 
L 246.105043 133.169751 
L 246.321038 112.9543 
L 246.57228 141.084029 
L 246.776415 109.697666 
L 247.007475 118.979794 
L 247.241812 141.859699 
L 247.467213 127.521098 
L 247.720923 131.417013 
L 247.924274 138.06035 
L 248.1432 122.413305 
L 248.393189 144.345825 
L 248.829977 128.149838 
L 249.057166 138.581253 
L 249.282149 143.08711 
L 249.524521 124.225128 
L 249.736378 121.562403 
L 249.964449 133.959422 
L 250.190287 124.649716 
L 250.415524 146.874477 
L 250.638634 120.43957 
L 250.857273 134.660945 
L 251.096564 135.82565 
L 251.328375 148.150787 
L 251.538861 143.007573 
L 251.786369 144.288156 
L 252.002684 116.772042 
L 252.233124 131.252657 
L 252.465222 116.386382 
L 252.680395 125.708976 
L 252.913439 120.493437 
L 253.143964 131.174612 
L 253.358575 107.976275 
L 253.580712 143.759764 
L 253.823783 135.976005 
L 254.040306 136.083321 
L 254.269741 126.320598 
L 254.513647 157.423853 
L 254.717919 127.089158 
L 254.939612 123.426524 
L 255.169824 142.953805 
L 255.40296 150.209717 
L 255.843422 133.087391 
L 256.084691 123.878649 
L 256.305529 141.631605 
L 256.538939 133.464671 
L 256.76432 129.893146 
L 256.971549 131.897859 
L 257.18868 122.829345 
L 257.652099 136.847152 
L 257.887304 142.544626 
L 258.101902 132.484955 
L 258.322734 144.320998 
L 258.555595 123.855746 
L 258.804044 134.424904 
L 259.006737 151.903875 
L 259.234892 140.293885 
L 259.494535 163.005091 
L 259.695844 137.544418 
L 259.937589 136.418621 
L 260.152892 140.435904 
L 260.379285 138.234981 
L 260.599986 129.884087 
L 261.034724 138.10368 
L 261.489788 150.509726 
L 261.719941 146.324935 
L 261.954591 132.494818 
L 262.18353 146.340597 
L 262.652243 124.388972 
L 262.883831 154.841846 
L 263.100753 159.208197 
L 263.34385 156.477632 
L 263.575889 148.707229 
L 264.022383 156.329829 
L 264.238861 134.619186 
L 264.45951 153.27792 
L 264.695433 153.694348 
L 264.916963 138.48673 
L 265.143806 146.964483 
L 265.598107 140.222945 
L 265.82369 147.540218 
L 266.059541 141.333446 
L 266.265093 159.469779 
L 266.51362 166.73557 
L 266.745195 141.259944 
L 266.955433 161.777825 
L 267.178739 144.482742 
L 267.3979 159.895638 
L 267.86237 129.162085 
L 268.091752 148.941111 
L 268.327695 136.739879 
L 268.562306 147.68057 
L 268.788046 171.346184 
L 269.011162 139.36718 
L 269.242758 155.405924 
L 269.698331 145.04998 
L 269.924136 141.249828 
L 270.156391 131.57362 
L 270.382666 154.295018 
L 270.604895 121.131985 
L 270.824474 149.048591 
L 271.045469 125.251338 
L 271.267873 145.883475 
L 271.491003 137.343564 
L 271.714432 140.765777 
L 271.939487 140.726176 
L 272.183276 151.913082 
L 272.424708 152.465227 
L 272.860092 123.710432 
L 273.103449 153.127741 
L 273.320528 122.773139 
L 273.555857 151.494768 
L 273.781878 161.601651 
L 274.007736 150.105001 
L 274.220082 147.171629 
L 274.692019 156.235922 
L 274.906395 153.843932 
L 275.133441 140.809065 
L 275.381074 151.186116 
L 275.597826 139.32655 
L 275.811041 150.955025 
L 276.047531 152.621725 
L 276.267214 149.808181 
L 276.516929 159.733319 
L 276.724002 148.02734 
L 276.950989 144.602151 
L 277.170437 166.066702 
L 277.409969 143.542354 
L 277.864733 171.069457 
L 278.075996 142.048788 
L 278.327656 124.579971 
L 278.545511 151.481913 
L 278.775873 139.278603 
L 279.003721 143.325606 
L 279.227249 134.379964 
L 279.468635 150.965799 
L 279.669167 147.189169 
L 279.904953 146.834753 
L 280.146313 148.562672 
L 280.359919 146.765231 
L 280.583244 161.172577 
L 280.814729 111.97158 
L 281.034431 135.7812 
L 281.285158 148.513056 
L 281.522882 153.910858 
L 281.734537 145.07689 
L 281.978599 161.638543 
L 282.186683 133.290545 
L 282.415863 165.397099 
L 282.642609 135.22109 
L 282.868565 149.323811 
L 283.097033 134.170342 
L 283.322982 147.547875 
L 283.543906 168.650323 
L 283.78883 133.814333 
L 283.999172 146.720282 
L 284.253247 137.55106 
L 284.925423 148.97616 
L 285.36847 140.118745 
L 285.820035 154.525507 
L 286.073752 135.98284 
L 286.278827 153.853019 
L 286.522406 142.360648 
L 286.72239 163.21999 
L 286.983978 152.996387 
L 287.193485 173.627037 
L 287.438076 129.47844 
L 287.670011 149.022345 
L 287.895718 144.955065 
L 288.112771 156.812606 
L 288.57307 162.037542 
L 288.796963 139.529963 
L 289.014289 148.654671 
L 289.23815 126.86471 
L 289.46966 158.545513 
L 289.699154 162.790582 
L 289.917407 143.578564 
L 290.16271 151.654674 
L 290.371179 153.409053 
L 290.626312 158.039563 
L 290.836948 149.739023 
L 291.049177 164.165044 
L 291.298239 137.275383 
L 291.531616 131.896936 
L 291.734694 134.951965 
L 291.954063 125.995722 
L 292.201794 141.074656 
L 292.428135 129.269113 
L 292.654606 147.248947 
L 292.882298 129.751763 
L 293.100826 154.88064 
L 293.33731 156.444567 
L 293.563703 153.707854 
L 293.785997 132.498299 
L 294.006587 155.742707 
L 294.230441 142.972429 
L 294.934776 154.854611 
L 295.175275 149.308137 
L 295.626168 159.266776 
L 295.850688 153.617894 
L 296.076506 124.996559 
L 296.301574 140.163951 
L 296.531342 136.279187 
L 296.760222 171.306693 
L 296.971707 163.767993 
L 297.224072 146.823494 
L 297.446836 146.242319 
L 297.669195 137.442807 
L 297.910992 149.830361 
L 298.115506 132.462019 
L 298.334608 155.571907 
L 298.555211 151.018849 
L 298.805716 139.578488 
L 299.017847 158.798641 
L 299.241525 138.129483 
L 299.489236 158.633386 
L 299.727176 160.14239 
L 299.929855 119.751167 
L 300.172573 146.377156 
L 300.381492 151.365375 
L 300.605575 133.103049 
L 301.065815 160.792047 
L 301.316281 146.816255 
L 301.522224 153.461935 
L 301.737644 148.538624 
L 301.992934 175.855956 
L 302.227172 153.538535 
L 302.675109 160.534424 
L 302.883604 155.89934 
L 303.122405 143.381367 
L 303.35731 155.021282 
L 303.584075 157.923559 
L 303.802851 136.752643 
L 304.01942 155.786533 
L 304.25939 132.852506 
L 304.503465 171.749159 
L 304.715401 167.993007 
L 304.955161 129.950745 
L 305.166627 137.590379 
L 305.392204 162.764178 
L 305.604596 163.721035 
L 306.31442 138.499835 
L 306.54223 162.262949 
L 306.751991 157.537437 
L 306.971844 131.601538 
L 307.228491 175.619364 
L 307.466111 151.057914 
L 307.677322 152.948944 
L 307.893545 142.754486 
L 308.123313 156.64548 
L 308.367271 134.346914 
L 308.591941 151.801504 
L 308.815338 137.0111 
L 309.038075 156.411062 
L 309.269051 142.807965 
L 309.502976 157.701 
L 309.731164 157.381027 
L 309.969842 140.847743 
L 310.183134 141.206093 
L 310.410624 153.829805 
L 310.633832 150.362464 
L 310.860577 151.868002 
L 311.087505 149.762379 
L 311.324107 134.988852 
L 311.55755 154.947615 
L 311.766482 148.295919 
L 312.221259 163.697171 
L 312.442365 145.015025 
L 312.666049 168.10272 
L 312.92455 148.652268 
L 313.147144 149.738552 
L 313.374882 140.396971 
L 313.601699 163.137205 
L 313.83067 139.253007 
L 314.061352 162.824531 
L 314.288574 150.814754 
L 314.730231 165.555051 
L 314.959653 162.905155 
L 315.183826 147.59758 
L 315.408085 159.19503 
L 315.638734 163.472578 
L 315.864148 164.786723 
L 316.11274 138.527451 
L 316.337775 170.310334 
L 316.549136 152.794314 
L 316.771476 153.171918 
L 317.262916 164.906306 
L 317.477018 148.083368 
L 317.694671 152.213121 
L 317.947872 163.767157 
L 318.181027 139.971926 
L 318.392355 164.106347 
L 318.614597 151.988399 
L 318.822329 148.324337 
L 319.061221 154.670954 
L 319.28655 140.777033 
L 319.493114 151.686878 
L 319.737542 154.374762 
L 319.946063 161.942801 
L 320.211124 146.435418 
L 320.659752 171.848295 
L 320.879996 151.863137 
L 321.103504 162.037866 
L 321.348598 155.691146 
L 321.547654 144.050199 
L 321.779315 165.086915 
L 322.021517 160.543405 
L 322.245345 163.483138 
L 322.470145 160.874217 
L 322.688079 156.00243 
L 322.931091 155.626529 
L 323.148247 158.169159 
L 323.36107 145.734455 
L 323.61604 156.47975 
L 323.825658 157.268729 
L 324.073773 151.309009 
L 324.290043 176.41588 
L 324.527499 156.89753 
L 324.761138 150.033061 
L 324.985233 155.611393 
L 325.223101 149.837612 
L 325.438215 169.166871 
L 325.673446 164.729396 
L 325.894082 151.227164 
L 326.123954 183.632528 
L 326.335191 140.32089 
L 327.029069 163.677886 
L 327.262558 151.007873 
L 327.474858 161.735902 
L 327.69629 139.748787 
L 327.937794 173.486955 
L 328.151224 151.852804 
L 328.383518 170.237759 
L 328.614375 155.893706 
L 328.844868 150.766081 
L 329.074328 149.264805 
L 329.317144 160.699508 
L 329.523786 153.224963 
L 329.748534 153.364743 
L 329.975919 122.879631 
L 330.205484 171.941567 
L 330.437843 152.224895 
L 330.894311 158.860662 
L 331.11838 151.53812 
L 331.345478 156.683892 
L 331.590722 148.46487 
L 332.043834 178.438908 
L 332.284731 155.908925 
L 332.508552 162.959606 
L 332.734371 147.682621 
L 332.959954 146.799489 
L 333.418302 145.925182 
L 333.635021 154.851521 
L 333.870448 176.635879 
L 334.072272 172.029703 
L 334.313156 150.597361 
L 334.545763 162.836234 
L 334.774911 148.7782 
L 334.998432 171.002497 
L 335.241482 139.868115 
L 335.463215 161.903356 
L 335.687167 161.837811 
L 335.922124 153.343385 
L 336.15071 140.47434 
L 336.369844 152.650013 
L 336.593026 138.900896 
L 336.82438 175.176535 
L 337.077522 173.391067 
L 337.289489 181.38827 
L 337.517828 149.705322 
L 337.74379 168.180323 
L 337.973825 148.826499 
L 338.19296 154.823142 
L 338.407995 148.494536 
L 338.651868 169.794125 
L 338.878914 174.886292 
L 339.093702 139.100861 
L 339.333175 183.153204 
L 339.565978 153.601515 
L 339.792345 142.746074 
L 340.01443 139.2338 
L 340.257716 176.402245 
L 340.472934 158.008411 
L 340.695019 155.479721 
L 340.920446 157.374313 
L 341.14744 174.015814 
L 341.626361 159.812737 
L 341.850352 157.662599 
L 342.079748 163.250903 
L 342.303739 174.906362 
L 342.529388 152.624737 
L 342.747595 177.643422 
L 342.980477 145.687719 
L 343.217183 183.687732 
L 343.440443 139.450703 
L 343.681496 180.606908 
L 343.903868 131.071136 
L 344.118173 169.627001 
L 344.342829 149.009295 
L 344.566677 160.024669 
L 344.809558 151.450033 
L 345.036564 175.454207 
L 345.247697 162.1054 
L 345.476583 159.221062 
L 345.941471 180.353299 
L 346.156859 158.212805 
L 346.413186 176.25671 
L 346.845124 160.66921 
L 347.072574 177.061929 
L 347.327883 150.482512 
L 347.542096 150.113782 
L 347.763385 158.349225 
L 348.002102 178.822257 
L 348.239108 152.54602 
L 348.447394 163.083451 
L 348.687403 193.962604 
L 349.130177 170.391062 
L 349.357444 185.480832 
L 349.602571 174.730276 
L 349.81087 174.435751 
L 350.065853 175.702733 
L 350.276867 165.30924 
L 350.501367 178.636258 
L 350.753922 176.039354 
L 350.971829 180.607141 
L 351.201551 180.746165 
L 351.410047 157.895639 
L 351.644194 191.212725 
L 351.872832 205.745031 
L 352.08557 178.781809 
L 352.319313 196.920441 
L 352.56162 192.314434 
L 352.789984 215.455535 
L 353.019928 185.968044 
L 353.247835 191.714466 
L 353.474803 213.660155 
L 353.702671 181.685079 
L 353.930226 207.981349 
L 354.159752 194.721995 
L 354.377633 209.005394 
L 354.612433 212.017197 
L 354.839035 213.413602 
L 355.048079 179.68994 
L 355.292265 212.313473 
L 355.525682 203.629548 
L 355.746527 208.999722 
L 355.973102 228.399098 
L 356.199352 229.70295 
L 356.431371 209.769924 
L 356.655323 224.493502 
L 356.903543 213.155095 
L 357.109219 216.655203 
L 357.341121 238.416068 
L 357.57318 228.70705 
L 357.787719 234.83097 
L 358.035026 211.026058 
L 358.252946 209.839087 
L 358.477773 236.030588 
L 358.699623 193.961495 
L 358.941446 219.487564 
L 359.180894 231.132014 
L 359.390695 215.251766 
L 359.630834 233.569802 
L 359.852005 200.95077 
L 360.073216 237.634666 
L 360.295444 223.657577 
L 360.541811 242.276673 
L 360.751481 232.963321 
L 360.989284 245.60927 
L 361.207922 237.008204 
L 361.444393 217.557777 
L 361.67358 233.802076 
L 361.901239 235.10629 
L 362.132567 244.760981 
L 362.360383 221.066561 
L 362.584374 247.533015 
L 362.807986 209.231729 
L 363.034353 209.035681 
L 363.262222 244.480411 
L 363.48338 231.401574 
L 363.725334 240.122472 
L 364.180156 232.2285 
L 364.403038 239.987538 
L 364.643282 221.353718 
L 364.863591 243.082765 
L 365.090585 235.668844 
L 365.325659 260.878244 
L 365.556621 232.32021 
L 365.780743 251.877614 
L 366.000556 231.691222 
L 366.230226 235.458668 
L 366.458408 253.555694 
L 366.681811 243.392203 
L 366.921063 214.582624 
L 367.154793 238.807694 
L 367.36475 245.057024 
L 367.616103 232.288995 
L 368.072728 248.925287 
L 368.285661 238.710401 
L 368.511493 235.422474 
L 368.735902 229.305014 
L 368.9586 233.475709 
L 369.416465 250.864968 
L 369.641291 238.242705 
L 369.892527 246.196984 
L 370.100657 247.701534 
L 370.339634 245.954327 
L 370.568886 220.753649 
L 370.789705 242.874637 
L 371.0185 230.132407 
L 371.239841 252.560003 
L 371.689977 224.006407 
L 371.917271 221.738154 
L 372.177919 233.865695 
L 372.38225 258.460665 
L 372.626306 244.065403 
L 372.850179 242.264493 
L 373.070045 235.594397 
L 373.293501 246.500831 
L 373.518627 249.407945 
L 373.753702 242.976358 
L 373.991922 247.900113 
L 374.217062 249.656227 
L 374.428964 237.60357 
L 374.663608 234.794229 
L 374.873448 238.548912 
L 375.110128 250.363954 
L 375.355855 235.353775 
L 375.584663 252.881993 
L 375.811487 242.707696 
L 376.035791 252.528771 
L 376.24943 232.588722 
L 376.467194 240.571884 
L 376.721915 245.750174 
L 376.925828 232.114394 
L 377.177665 232.37385 
L 377.405533 254.476583 
L 377.63391 252.332321 
L 377.858254 255.036552 
L 378.087323 260.873545 
L 378.547563 256.136233 
L 378.770053 227.739322 
L 378.984697 257.527072 
L 379.222043 253.714921 
L 379.464036 253.381162 
L 379.68693 252.51354 
L 379.902579 245.217634 
L 380.119482 255.090373 
L 380.344517 251.568106 
L 380.595714 260.567137 
L 380.807799 251.271637 
L 381.062755 247.279239 
L 381.274331 238.686698 
L 381.485855 270.848032 
L 381.737822 233.352211 
L 381.960286 247.416094 
L 382.190151 238.255631 
L 382.410774 247.180921 
L 382.647768 249.164555 
L 382.879069 219.412745 
L 383.107577 271.023706 
L 383.331438 236.837464 
L 383.570167 251.436382 
L 383.779354 235.219847 
L 384.006922 248.759676 
L 384.236605 239.564057 
L 384.698764 234.164553 
L 385.364471 258.945789 
L 385.837923 237.174217 
L 386.06113 248.654461 
L 386.278398 234.143915 
L 386.50141 282.459973 
L 386.730362 235.863853 
L 386.953269 260.598104 
L 387.197678 254.643698 
L 387.428535 239.488368 
L 387.864559 238.952933 
L 388.124372 264.526173 
L 388.351796 235.897505 
L 388.80893 254.356004 
L 389.030427 259.215773 
L 389.704867 245.236138 
L 389.944054 261.636896 
L 390.16033 240.916809 
L 390.389138 248.467793 
L 390.617541 266.816612 
L 390.84088 240.285719 
L 391.085693 259.639317 
L 391.299827 247.590432 
L 391.532121 262.559964 
L 391.757104 228.851255 
L 392.001421 229.789607 
L 392.219015 262.550387 
L 392.452301 239.695617 
L 392.668433 237.886796 
L 392.902946 238.421827 
L 393.135984 252.950188 
L 393.368852 243.184327 
L 393.580663 255.086211 
L 393.81643 229.234034 
L 394.052235 265.35502 
L 394.263733 238.188093 
L 394.510165 255.787763 
L 394.709952 240.804803 
L 394.925954 263.402752 
L 395.179474 268.917981 
L 395.645459 251.012301 
L 395.863262 252.595747 
L 396.093062 225.086101 
L 396.310722 242.180411 
L 396.535731 213.542495 
L 397.009522 242.942365 
L 397.216777 230.451387 
L 397.461407 249.702053 
L 397.699379 235.622593 
L 397.918227 250.442845 
L 398.144346 222.798972 
L 398.369016 246.021381 
L 398.61426 235.555285 
L 398.821201 239.379015 
L 399.045832 247.436594 
L 399.278674 220.924272 
L 399.521033 244.273376 
L 399.742204 225.164824 
L 399.965921 233.676216 
L 400.182745 247.125084 
L 400.401814 234.725112 
L 400.641901 232.519403 
L 400.886453 223.164836 
L 401.107585 233.372218 
L 401.323065 236.518166 
L 401.544889 236.920438 
L 401.772326 233.347217 
L 402.005664 247.727397 
L 402.246 201.465186 
L 402.458842 215.829628 
L 402.703994 211.030515 
L 402.940544 219.906131 
L 403.165083 237.870922 
L 403.392703 216.666281 
L 403.61612 214.28492 
L 403.836377 217.427544 
L 404.060081 237.594348 
L 404.291631 227.089614 
L 404.743098 221.896613 
L 404.99329 222.259509 
L 405.226615 222.334086 
L 405.440789 217.146824 
L 405.89522 223.949624 
L 406.115634 208.868016 
L 406.33298 231.047278 
L 406.580704 223.506934 
L 407.023947 204.812975 
L 407.264204 204.554002 
L 407.491302 257.694302 
L 407.712735 228.638028 
L 407.935681 238.587291 
L 408.159307 207.840315 
L 408.412788 246.530348 
L 408.626231 239.664385 
L 408.863107 238.465703 
L 409.095374 206.466417 
L 409.300097 218.379376 
L 409.550889 217.519107 
L 409.771029 227.563912 
L 409.991978 248.209465 
L 410.216426 244.701575 
L 410.44872 202.634052 
L 410.680086 254.260356 
L 410.901649 224.740801 
L 411.143029 251.724769 
L 411.350584 233.901822 
L 411.600097 253.296652 
L 411.837756 206.173774 
L 412.04633 245.938069 
L 412.267344 249.218771 
L 412.514416 243.843121 
L 412.977802 243.668541 
L 413.192015 257.679332 
L 413.424922 262.015715 
L 413.646276 256.888686 
L 413.864132 258.555061 
L 414.119441 256.675925 
L 414.339802 276.083475 
L 414.564002 254.380945 
L 414.79127 261.516584 
L 415.013616 279.200887 
L 415.232934 267.707062 
L 415.482733 290.101832 
L 415.694518 270.999079 
L 415.928209 290.174123 
L 416.185711 269.88751 
L 416.388031 274.162439 
L 416.629829 266.036899 
L 416.836209 272.371926 
L 417.068137 247.574903 
L 417.29705 271.326753 
L 417.529579 251.470445 
L 417.749183 252.035067 
L 418.434185 227.873726 
L 418.677483 258.310755 
L 418.904085 260.112304 
L 419.122293 245.169698 
L 419.366349 246.99977 
L 419.581815 253.928614 
L 419.807765 231.305622 
L 420.05964 245.592336 
L 420.272274 251.317041 
L 420.505155 230.970488 
L 420.720647 226.252505 
L 420.972092 249.456479 
L 421.1856 223.989713 
L 421.422241 244.941306 
L 421.633869 233.348696 
L 421.85649 210.026309 
L 422.301182 233.367793 
L 422.552196 228.850691 
L 422.768237 256.597742 
L 422.993272 247.425781 
L 423.248881 250.747214 
L 423.47376 246.355123 
L 423.699004 216.08212 
L 423.926311 252.822857 
L 424.154492 252.569647 
L 424.373431 259.969462 
L 424.589576 230.684074 
L 424.83982 239.938123 
L 425.047114 229.220822 
L 425.309486 246.171014 
L 425.510396 243.168036 
L 425.748343 215.816759 
L 425.961616 238.345367 
L 426.447169 219.565524 
L 426.657309 242.371666 
L 426.882841 231.834739 
L 427.121309 229.488043 
L 427.339321 261.224523 
L 427.577724 262.220498 
L 427.811049 219.384189 
L 428.247334 244.734112 
L 428.490372 213.371928 
L 428.720433 247.336498 
L 428.943628 250.389439 
L 429.182462 239.887753 
L 429.388908 247.662258 
L 429.613434 203.587748 
L 429.847059 246.786302 
L 430.082838 237.582114 
L 430.300929 254.907112 
L 430.514267 219.230977 
L 430.757945 262.048872 
L 431.000604 262.117986 
L 431.452071 236.14165 
L 431.670866 252.847349 
L 431.914844 229.327574 
L 432.139096 232.841287 
L 432.82069 261.589355 
L 433.047723 229.448628 
L 433.271583 258.403728 
L 433.499621 233.064855 
L 433.72591 246.776657 
L 434.179205 232.044801 
L 434.396251 236.844878 
L 434.65032 247.949048 
L 434.868214 249.096355 
L 435.09107 241.313386 
L 435.307776 265.962271 
L 435.53037 240.564944 
L 435.772207 239.504383 
L 436.020284 262.736439 
L 436.239262 234.238241 
L 436.448814 231.789068 
L 436.693745 239.247808 
L 436.918663 220.194038 
L 437.151061 228.99916 
L 437.374399 223.785477 
L 437.610361 256.526069 
L 437.844809 243.794603 
L 438.056646 249.616586 
L 438.301237 226.202657 
L 438.526938 259.180067 
L 438.758018 242.208634 
L 438.979032 253.640026 
L 439.429547 222.882752 
L 439.6494 262.207984 
L 439.892581 252.406122 
L 440.103765 257.613367 
L 440.349936 250.160251 
L 440.784733 223.426356 
L 441.035094 233.753564 
L 441.258524 276.135491 
L 441.477906 249.939677 
L 441.693686 256.375695 
L 441.931424 240.928902 
L 442.161981 268.395166 
L 442.390332 233.245962 
L 442.617952 227.093108 
L 442.868653 269.847733 
L 443.082331 230.239903 
L 443.297445 239.343223 
L 443.547271 224.570177 
L 444.001806 243.732987 
L 444.210876 270.897814 
L 444.435976 253.21612 
L 444.68793 249.346013 
L 444.901164 240.377646 
L 445.135873 235.186859 
L 445.361144 240.934423 
L 445.604899 224.059248 
L 445.813225 254.584858 
L 446.036889 245.514661 
L 446.265475 228.408936 
L 446.488161 236.864755 
L 446.710873 260.506482 
L 446.937892 241.924173 
L 447.164899 260.680101 
L 447.423889 231.46937 
L 447.640987 262.68397 
L 447.865174 248.142397 
L 448.089283 248.236056 
L 448.538322 242.471674 
L 448.787104 237.511731 
L 449.006473 260.365193 
L 449.242435 248.653586 
L 449.664047 259.84639 
L 449.924395 232.676939 
L 450.131559 263.085758 
L 450.381006 227.450529 
L 450.589475 264.232627 
L 450.845568 242.322503 
L 451.068801 250.112948 
L 451.29556 263.898278 
L 451.742837 241.6023 
L 451.963891 258.324822 
L 452.213338 248.912391 
L 452.422212 236.815073 
L 452.67239 249.958127 
L 452.897804 225.9094 
L 453.128727 259.155507 
L 453.34063 258.276264 
L 453.550639 243.987682 
L 453.796849 244.170288 
L 454.039482 235.540638 
L 454.266593 260.86859 
L 454.496903 237.588172 
L 454.709432 259.549594 
L 454.945289 221.972656 
L 455.62238 274.27521 
L 455.848433 262.82643 
L 456.072659 277.134885 
L 456.306937 261.218233 
L 456.536999 260.299859 
L 456.761029 242.141908 
L 457.013257 258.765324 
L 457.225159 245.339112 
L 457.449842 252.478393 
L 457.674068 217.215513 
L 457.898163 258.951805 
L 458.358351 224.620827 
L 458.819754 255.169163 
L 459.281378 248.316918 
L 459.508972 252.648437 
L 459.726253 253.158339 
L 459.959565 252.780942 
L 460.185827 229.706282 
L 460.407821 275.014605 
L 460.628052 267.718212 
L 460.852004 247.105312 
L 461.082026 268.157969 
L 461.328392 226.143125 
L 461.76785 284.188857 
L 462.000822 244.078273 
L 462.258507 249.863036 
L 462.464861 278.973813 
L 462.71551 254.868059 
L 462.926355 257.319253 
L 463.145124 268.443563 
L 463.368084 271.111912 
L 463.826901 247.313442 
L 464.058359 273.515175 
L 464.288329 266.478302 
L 464.511367 270.921169 
L 464.736076 262.793457 
L 464.97384 271.665893 
L 465.21018 287.460167 
L 465.42707 255.884112 
L 465.65358 253.511279 
L 465.876592 257.160918 
L 466.08745 258.137988 
L 466.311193 295.281975 
L 466.777517 254.72567 
L 467.24576 287.608924 
L 467.471839 285.059778 
L 467.692397 248.361125 
L 467.938907 291.648875 
L 468.172833 271.344352 
L 468.393664 265.053212 
L 468.620606 269.379678 
L 468.85363 265.25124 
L 469.073366 280.629849 
L 469.312709 272.207206 
L 469.519259 259.570314 
L 469.754895 301.072962 
L 469.965113 262.309045 
L 470.207942 259.783301 
L 470.437716 272.763506 
L 470.668051 277.825037 
L 470.889223 270.708933 
L 471.131973 270.266541 
L 471.364541 277.943493 
L 471.584394 274.19114 
L 471.806609 259.995112 
L 472.047584 278.932944 
L 472.262607 275.049736 
L 472.487355 256.016365 
L 472.714113 263.508514 
L 472.955441 275.52579 
L 473.160633 275.06972 
L 473.399193 272.601022 
L 473.641356 265.282662 
L 473.865739 250.980708 
L 474.088111 297.815613 
L 474.312089 249.468223 
L 474.540088 295.624744 
L 474.770175 272.45494 
L 474.992991 292.377324 
L 475.212961 274.232008 
L 475.455229 278.342343 
L 475.682901 274.56961 
L 475.902271 268.399741 
L 476.142097 273.627384 
L 476.360057 289.375078 
L 476.581293 270.305738 
L 476.804919 296.19331 
L 477.051546 258.122563 
L 477.48791 293.419735 
L 477.718258 285.515258 
L 477.953894 269.2897 
L 478.188968 278.712968 
L 478.41403 242.600502 
L 478.654953 294.497745 
L 478.886267 255.122334 
L 479.10065 272.10891 
L 479.320999 273.92564 
L 479.576243 279.754876 
L 479.799019 260.702472 
L 480.018728 279.228154 
L 480.24114 282.092666 
L 480.466384 262.736941 
L 480.683913 271.219759 
L 480.907264 290.129772 
L 481.144362 295.666018 
L 481.37586 254.907554 
L 481.61532 282.833959 
L 481.845395 272.992915 
L 482.054738 280.737429 
L 482.277842 269.390148 
L 482.504548 282.876001 
L 482.747311 283.267701 
L 482.98779 282.457254 
L 483.217055 273.567493 
L 483.437052 274.864436 
L 483.649437 273.798133 
L 483.903467 293.816766 
L 484.117954 270.019971 
L 484.35731 278.697523 
L 484.563469 274.933963 
L 484.786794 273.624334 
L 485.267112 279.887448 
L 485.491377 289.874438 
L 485.948563 262.372784 
L 486.160791 257.769521 
L 486.405644 291.45145 
L 486.614609 273.812946 
L 486.837712 272.694856 
L 487.08964 278.054917 
L 487.298435 298.901639 
L 487.54347 263.107003 
L 487.773923 275.231233 
L 487.993828 276.033336 
L 488.231762 285.678238 
L 488.44715 257.192109 
L 488.653647 297.611285 
L 488.907298 267.806139 
L 489.117804 293.894751 
L 489.361925 297.337202 
L 489.599885 267.293309 
L 489.813811 281.938568 
L 490.044446 290.049379 
L 490.267497 263.302469 
L 490.484922 270.567464 
L 490.729396 284.559794 
L 490.933074 274.386619 
L 491.183944 301.677985 
L 491.409201 273.700598 
L 491.637448 274.018192 
L 491.863684 300.01155 
L 492.09603 254.980135 
L 492.313181 256.266721 
L 492.55772 281.734594 
L 492.794086 267.357275 
L 493.243896 289.377379 
L 493.467626 285.038238 
L 493.6924 287.444182 
L 493.919459 301.703509 
L 494.143032 268.471244 
L 494.363838 266.430047 
L 494.607124 286.415353 
L 494.820358 282.219789 
L 495.047782 264.069621 
L 495.282412 259.667004 
L 495.513936 244.198434 
L 495.735655 283.952042 
L 495.963785 267.770988 
L 496.202175 275.394513 
L 496.429547 263.705195 
L 496.651005 297.909741 
L 496.87467 272.045728 
L 497.119118 280.287639 
L 497.332887 274.738171 
L 497.555977 264.5906 
L 498.019298 277.19558 
L 498.232519 299.068344 
L 498.469382 250.47118 
L 498.705253 273.838772 
L 498.927964 264.521985 
L 499.174344 248.558393 
L 499.385672 251.299398 
L 499.605629 252.413411 
L 499.859136 272.150111 
L 500.08113 267.947387 
L 500.299116 278.393044 
L 500.529425 278.366956 
L 500.761628 261.209817 
L 500.985357 270.286651 
L 501.18961 254.501558 
L 501.449149 281.602038 
L 501.668675 264.540499 
L 501.890473 284.230917 
L 502.119359 262.017049 
L 502.351 288.591775 
L 502.573725 272.502631 
L 502.791058 275.083665 
L 503.043665 297.461179 
L 503.2534 268.678104 
L 503.482313 287.434864 
L 503.708523 247.897476 
L 503.929968 297.785595 
L 504.183593 264.064136 
L 504.398968 271.982207 
L 504.625191 292.484458 
L 504.864247 268.673768 
L 505.087546 265.465647 
L 505.293431 248.285746 
L 505.529693 274.588387 
L 506.00599 294.236623 
L 506.23861 287.304059 
L 506.912777 254.892955 
L 507.139692 255.758536 
L 507.373069 275.313162 
L 507.600089 269.103646 
L 507.827278 292.585356 
L 508.052261 257.617301 
L 508.276827 279.559568 
L 508.507475 264.871753 
L 508.731179 292.418164 
L 508.95675 247.109715 
L 509.180519 290.102963 
L 509.401729 283.893136 
L 509.642391 287.541282 
L 509.865873 286.07372 
L 510.09925 254.916505 
L 510.556879 291.212051 
L 510.771928 295.30641 
L 511.004718 261.169014 
L 511.238108 276.293569 
L 511.460415 269.266869 
L 511.689745 314.069686 
L 511.925773 267.950495 
L 512.167518 290.611983 
L 512.379577 279.750621 
L 512.846083 299.604677 
L 513.058704 273.799441 
L 513.291298 289.008306 
L 513.522482 284.635105 
L 513.972226 297.365875 
L 514.198567 289.709715 
L 514.419425 294.361267 
L 514.664838 306.871402 
L 514.868203 263.580824 
L 515.131084 267.149062 
L 515.355688 289.29252 
L 515.57233 287.295861 
L 515.795302 290.637862 
L 516.249916 306.691364 
L 516.481087 290.339322 
L 516.695574 304.068687 
L 516.933064 301.582316 
L 517.15323 282.220017 
L 517.386672 292.962571 
L 517.627125 294.779775 
L 517.873283 308.852699 
L 518.092652 301.795044 
L 518.313406 265.74332 
L 518.535256 287.998196 
L 518.754377 283.866991 
L 518.99124 302.819383 
L 519.226289 288.400422 
L 519.445449 293.039977 
L 519.684127 283.994242 
L 519.90005 271.477554 
L 520.114616 309.131009 
L 520.364559 311.701687 
L 520.808298 282.707993 
L 521.017498 320.949964 
L 521.28504 282.582452 
L 521.504096 306.231517 
L 521.718218 290.745367 
L 521.960759 299.907728 
L 522.185377 282.482251 
L 522.618098 299.962361 
L 522.850405 265.332559 
L 523.08869 294.931857 
L 523.307864 292.566102 
L 523.552312 297.876903 
L 523.76471 320.772373 
L 523.98737 296.795544 
L 524.24076 301.73249 
L 524.45244 280.081286 
L 524.676092 323.771752 
L 524.927497 286.350968 
L 525.146645 311.72834 
L 525.372451 324.521815 
L 525.587578 293.525643 
L 525.808892 310.076856 
L 526.056447 289.966632 
L 526.286717 301.540836 
L 526.494534 299.480434 
L 526.737323 305.61349 
L 526.97839 323.35667 
L 527.201219 279.604745 
L 527.432272 330.915025 
L 527.659344 299.957689 
L 527.885659 320.147611 
L 528.110577 286.433175 
L 528.334946 309.885742 
L 528.558219 312.262455 
L 529.032611 287.768461 
L 529.253743 317.060075 
L 529.481911 326.870188 
L 529.706881 295.690975 
L 530.175698 321.097135 
L 530.382797 297.848965 
L 530.618041 325.339659 
L 530.851 311.465957 
L 531.067446 311.744453 
L 531.306254 309.897201 
L 531.519736 285.284278 
L 531.762852 321.552226 
L 531.994741 328.914066 
L 532.218457 331.692058 
L 532.435007 291.085624 
L 532.897153 316.92415 
L 533.123116 299.84279 
L 533.358999 305.516772 
L 533.588591 297.625283 
L 533.817347 302.879824 
L 534.048348 275.537407 
L 534.273697 318.568508 
L 534.501669 290.923731 
L 534.726196 278.208513 
L 534.934612 280.947 
L 535.184438 289.807428 
L 535.410218 310.608861 
L 535.638634 294.567054 
L 535.851255 337.259902 
L 536.071251 276.336086 
L 536.324432 290.790467 
L 536.561439 311.322288 
L 536.768916 297.820885 
L 537.016496 301.270362 
L 537.230357 291.649758 
L 537.470379 319.847094 
L 537.669122 276.370965 
L 537.927721 323.455224 
L 538.142874 302.908498 
L 538.362335 332.878606 
L 538.584851 296.101255 
L 538.838802 323.123982 
L 539.061279 321.617482 
L 539.270884 299.264361 
L 539.503713 321.425521 
L 539.728996 291.919494 
L 540.168218 303.474785 
L 540.645782 313.398635 
L 540.859825 301.743169 
L 541.087589 272.189553 
L 541.568194 303.270466 
L 541.802473 288.450243 
L 542.025302 309.599518 
L 542.246747 299.600111 
L 542.470046 297.686365 
L 542.69217 300.51759 
L 542.915378 300.003872 
L 543.166261 324.041146 
L 543.380331 286.042153 
L 543.60863 321.774936 
L 543.831394 298.713519 
L 544.056155 307.309316 
L 544.294885 306.506705 
L 544.531199 316.624093 
L 544.756208 308.367305 
L 544.989129 260.581965 
L 545.216592 305.442815 
L 545.66866 286.711217 
L 545.894087 293.64853 
L 546.11719 315.847852 
L 546.34438 298.039282 
L 546.575851 289.384174 
L 546.807714 304.131809 
L 547.035256 307.860484 
L 547.26349 308.892736 
L 547.488316 276.695549 
L 547.737189 305.009296 
L 547.945776 296.389037 
L 548.177364 267.630094 
L 548.414984 326.831033 
L 548.632161 298.815214 
L 548.859024 319.08235 
L 549.08607 316.611248 
L 549.316014 309.773135 
L 549.543164 287.682022 
L 549.779922 297.911813 
L 549.991146 296.741034 
L 550.214745 336.972273 
L 550.451817 306.606731 
L 550.693901 310.571 
L 550.917318 297.559024 
L 551.138672 267.266931 
L 551.372062 302.134951 
L 551.582268 299.822912 
L 551.816754 304.070934 
L 552.04991 280.37676 
L 552.281786 300.219673 
L 552.510685 305.252593 
L 552.736817 298.350686 
L 552.959816 335.243534 
L 553.200099 298.820997 
L 553.410931 314.661525 
L 553.652911 303.48757 
L 553.859984 322.36236 
L 554.32807 316.006247 
L 554.552426 305.571156 
L 554.783884 315.918896 
L 555.025134 289.799244 
L 555.241892 322.148662 
L 555.715827 295.645907 
L 555.93316 318.442544 
L 556.165689 295.44028 
L 556.38934 299.390757 
L 556.612261 336.210768 
L 556.835782 312.313196 
L 557.063115 316.499195 
L 557.29157 315.23198 
L 557.513603 339.318946 
L 557.764199 312.269412 
L 557.985997 308.542459 
L 558.194244 335.081662 
L 558.433379 317.121103 
L 558.669484 290.981784 
L 559.128328 340.007637 
L 559.333181 316.186854 
L 559.585004 316.514031 
L 560.048965 310.620433 
L 560.277525 312.481994 
L 560.504753 299.267834 
L 560.716604 297.192777 
L 560.947801 307.785053 
L 561.183306 313.256739 
L 561.404399 305.820988 
L 561.635387 348.239277 
L 562.085588 308.332356 
L 562.324931 314.659702 
L 562.567564 297.612252 
L 562.791973 308.20241 
L 563.014815 335.237385 
L 563.233506 313.600745 
L 563.459978 330.667447 
L 563.699295 301.45124 
L 563.924643 294.179522 
L 564.141376 325.402676 
L 564.382573 314.069042 
L 564.586408 321.861571 
L 564.818231 312.025159 
L 565.074911 310.55291 
L 565.287414 315.105045 
L 565.510178 295.245442 
L 565.947638 329.158666 
L 566.200662 332.771758 
L 566.441885 311.666413 
L 566.657808 341.097552 
L 567.092161 300.650219 
L 567.347092 328.929346 
L 567.57043 327.694857 
L 567.794055 311.188859 
L 568.013608 337.566201 
L 568.238904 317.329058 
L 568.476002 314.025797 
L 568.720202 280.356214 
L 568.933253 301.989575 
L 569.161552 300.96011 
L 569.386874 317.155312 
L 569.598751 299.576465 
L 569.833159 295.164932 
L 570.083286 278.963638 
L 570.290932 318.379642 
L 570.54427 303.535184 
L 570.761342 324.901717 
L 570.990163 329.499076 
L 571.221413 296.338072 
L 571.465925 292.889922 
L 571.678559 307.160155 
L 571.90208 311.059852 
L 572.124661 323.312396 
L 572.348521 313.002586 
L 572.822169 328.151005 
L 573.039319 321.236523 
L 573.258454 299.34746 
L 573.49858 313.375484 
L 573.723302 317.024259 
L 573.960505 312.042703 
L 574.191206 315.593396 
L 574.408513 316.038722 
L 574.632974 332.544054 
L 574.875293 296.281765 
L 575.082653 323.976245 
L 575.316774 300.899892 
L 575.542906 309.480304 
L 575.771257 336.522343 
L 576.015065 321.948941 
L 576.221015 322.72878 
L 576.472525 313.87172 
L 576.920428 310.639874 
L 577.385956 333.993967 
L 577.598615 316.343541 
L 577.84399 311.1044 
L 578.072106 326.501977 
L 578.519487 309.214331 
L 578.985302 330.977493 
L 579.436574 308.862519 
L 579.659729 326.117241 
L 579.884869 296.694722 
L 580.114447 314.465869 
L 580.343164 302.667125 
L 580.567834 317.546685 
L 580.79488 308.744542 
L 581.044562 345.979512 
L 581.258658 310.128333 
L 581.50646 320.264998 
L 581.716509 334.940824 
L 581.935591 331.152175 
L 582.159008 321.78089 
L 582.401093 332.255282 
L 582.64088 315.926559 
L 583.08317 342.872053 
L 583.301156 324.048719 
L 583.544415 327.510432 
L 583.756579 325.300583 
L 583.990961 326.014764 
L 584.215997 317.441207 
L 584.434766 303.190909 
L 584.675075 322.681662 
L 584.908517 331.393022 
L 585.134571 321.053963 
L 585.361904 301.523218 
L 585.572579 311.941089 
L 585.819964 332.167615 
L 586.03654 336.27176 
L 586.266614 321.139366 
L 586.515566 339.951794 
L 586.960963 299.341203 
L 587.184066 337.310604 
L 587.428657 331.592052 
L 587.640142 330.157377 
L 588.113633 344.114126 
L 588.570518 295.463938 
L 588.780828 339.135481 
L 589.241499 314.049496 
L 589.470111 314.312391 
L 589.715355 329.371709 
L 589.950469 331.177743 
L 590.172084 340.242661 
L 590.40362 330.02695 
L 590.637115 337.217862 
L 590.870192 324.265073 
L 591.088439 342.530052 
L 591.335563 329.248127 
L 591.567726 309.497584 
L 591.804197 323.574112 
L 592.033592 315.017566 
L 592.255808 322.082693 
L 592.483924 301.403847 
L 592.714965 339.879589 
L 593.184878 312.031509 
L 593.421167 346.448146 
L 593.644897 314.82258 
L 593.880167 326.699013 
L 594.115333 319.680193 
L 594.343136 332.594833 
L 594.558249 325.161217 
L 595.031792 362.580594 
L 595.256671 307.893816 
L 595.497085 332.256956 
L 595.964727 305.975827 
L 596.187595 324.254966 
L 596.408218 321.100023 
L 596.634924 297.38125 
L 597.113271 340.808461 
L 597.344756 291.130749 
L 597.593655 358.018669 
L 597.808638 339.7482 
L 598.060932 349.10955 
L 598.269257 336.62042 
L 598.519775 335.24429 
L 598.737944 316.255336 
L 598.965355 342.134889 
L 599.197074 302.148207 
L 599.659651 318.949138 
L 599.907193 327.840682 
L 600.129408 331.424555 
L 600.594126 300.614569 
L 600.813705 351.926593 
L 601.03908 317.175604 
L 601.305472 369.36 
L 601.536565 321.062896 
L 601.766143 335.508387 
L 601.999403 334.680291 
L 602.231096 332.057614 
L 602.689757 306.910757 
L 602.917246 321.318523 
L 603.138913 346.149529 
L 603.355489 336.430187 
L 603.600211 348.337261 
L 603.814803 303.436106 
L 604.048297 329.804405 
L 604.281322 298.167457 
L 604.531422 305.233236 
L 604.740296 337.031035 
L 605.006401 348.121148 
L 605.223734 316.728975 
L 605.452791 319.690012 
L 605.676912 355.431796 
L 605.925289 338.191856 
L 606.14552 340.083196 
L 606.384733 321.111953 
L 606.61627 334.96677 
L 606.85919 335.037072 
L 607.083076 344.110828 
L 607.286441 319.354542 
L 607.53923 352.125355 
L 608.003975 322.999732 
L 608.444724 336.594135 
L 608.702161 331.035137 
L 608.918946 317.571693 
L 609.146801 332.614327 
L 609.391105 325.895282 
L 609.607785 323.826067 
L 609.871045 305.418723 
L 610.095584 341.052379 
L 610.305607 328.520026 
L 610.568265 360.231083 
L 610.779698 311.625094 
L 611.004028 340.02815 
L 611.234703 342.132899 
L 611.463838 338.062876 
L 611.72057 340.063667 
L 611.95503 314.480057 
L 612.167768 329.527241 
L 612.402621 332.661367 
L 612.635254 323.886908 
L 612.866216 331.874946 
L 613.094854 322.358355 
L 613.331848 320.080061 
L 613.540721 349.253022 
L 613.807714 355.613268 
L 614.025778 327.71834 
L 614.255722 336.713243 
L 614.488617 324.180382 
L 614.719213 345.75048 
L 615.17085 323.972412 
L 615.398601 348.048639 
L 615.627005 350.120499 
L 615.880055 344.212462 
L 616.091148 304.992565 
L 616.322293 320.927634 
L 616.564221 327.490332 
L 616.771763 320.975843 
L 617.022255 299.399579 
L 617.253478 359.28421 
L 617.499923 344.695621 
L 617.723993 351.713134 
L 617.951064 335.950644 
L 618.18234 334.122168 
L 618.412754 329.896249 
L 618.641679 353.238638 
L 618.875801 328.405413 
L 619.10222 331.862188 
L 619.338769 349.606827 
L 619.56545 341.750991 
L 620.267526 293.139526 
L 620.498671 337.656056 
L 620.728537 316.911699 
L 620.961248 337.422012 
L 621.180331 323.616995 
L 621.39239 335.992681 
L 621.655623 341.21432 
L 622.05734 304.184335 
L 622.214883 344.883511 
L 622.323889 330.68497 
L 622.38971 355.327597 
L 622.418508 337.035669 
L 622.394749 313.717134 
L 622.313236 331.625875 
L 622.300416 330.974904 
L 622.29898 320.119915 
L 622.386994 351.832911 
L 622.571952 305.903565 
L 622.587043 324.050115 
L 622.625346 358.590431 
L 622.618609 320.590137 
L 622.636364 337.45052 
" clip-path="url(#pe32f1ff12e)" style="fill: none; stroke: #1f77b4; stroke-width: 1.5; stroke-linecap: square"/>
   </g>
   <g id="patch_3">
    <path d="M 90 384.48 
L 90 51.84 
" style="fill: none; stroke: #000000; stroke-width: 0.8; stroke-linejoin: miter; stroke-linecap: square"/>
   </g>
   <g id="patch_4">
    <path d="M 648 384.48 
L 648 51.84 
" style="fill: none; stroke: #000000; stroke-width: 0.8; stroke-linejoin: miter; stroke-linecap: square"/>
   </g>
   <g id="patch_5">
    <path d="M 90 384.48 
L 648 384.48 
" style="fill: none; stroke: #000000; stroke-width: 0.8; stroke-linejoin: miter; stroke-linecap: square"/>
   </g>
   <g id="patch_6">
    <path d="M 90 51.84 
L 648 51.84 
" style="fill: none; stroke: #000000; stroke-width: 0.8; stroke-linejoin: miter; stroke-linecap: square"/>
   </g>
   <g id="text_19">
    <!-- Susceptibility vs. Temperature -->
    <g transform="translate(278.329687 45.84) scale(0.12 -0.12)">
     <defs>
      <path id="DejaVuSans-76" d="M 191 3500 
L 800 3500 
L 1894 563 
L 2988 3500 
L 3597 3500 
L 2284 0 
L 1503 0 
L 191 3500 
z
" transform="scale(0.015625)"/>
     </defs>
     <use xlink:href="#DejaVuSans-53"/>
     <use xlink:href="#DejaVuSans-75" transform="translate(63.476562 0)"/>
     <use xlink:href="#DejaVuSans-73" transform="translate(126.855469 0)"/>
     <use xlink:href="#DejaVuSans-63" transform="translate(178.955078 0)"/>
     <use xlink:href="#DejaVuSans-65" transform="translate(233.935547 0)"/>
     <use xlink:href="#DejaVuSans-70" transform="translate(295.458984 0)"/>
     <use xlink:href="#DejaVuSans-74" transform="translate(358.935547 0)"/>
     <use xlink:href="#DejaVuSans-69" transform="translate(398.144531 0)"/>
     <use xlink:href="#DejaVuSans-62" transform="translate(425.927734 0)"/>
     <use xlink:href="#DejaVuSans-69" transform="translate(489.404297 0)"/>
     <use xlink:href="#DejaVuSans-6c" transform="translate(517.1875 0)"/>
     <use xlink:href="#DejaVuSans-69" transform="translate(544.970703 0)"/>
     <use xlink:href="#DejaVuSans-74" transform="translate(572.753906 0)"/>
     <use xlink:href="#DejaVuSans-79" transform="translate(611.962891 0)"/>
     <use xlink:href="#DejaVuSans-20" transform="translate(671.142578 0)"/>
     <use xlink:href="#DejaVuSans-76" transform="translate(702.929688 0)"/>
     <use xlink:href="#DejaVuSans-73" transform="translate(762.109375 0)"/>
     <use xlink:href="#DejaVuSans-2e" transform="translate(814.208984 0)"/>
     <use xlink:href="#DejaVuSans-20" transform="translate(845.996094 0)"/>
     <use xlink:href="#DejaVuSans-54" transform="translate(877.783203 0)"/>
     <use xlink:href="#DejaVuSans-65" transform="translate(921.867188 0)"/>
     <use xlink:href="#DejaVuSans-6d" transform="translate(983.390625 0)"/>
     <use xlink:href="#DejaVuSans-70" transform="translate(1080.802734 0)"/>
     <use xlink:href="#DejaVuSans-65" transform="translate(1144.279297 0)"/>
     <use xlink:href="#DejaVuSans-72" transform="translate(1205.802734 0)"/>
     <use xlink:href="#DejaVuSans-61" transform="translate(1246.916016 0)"/>
     <use xlink:href="#DejaVuSans-74" transform="translate(1308.195312 0)"/>
     <use xlink:href="#DejaVuSans-75" transform="translate(1347.404297 0)"/>
     <use xlink:href="#DejaVuSans-72" transform="translate(1410.783203 0)"/>
     <use xlink:href="#DejaVuSans-65" transform="translate(1449.646484 0)"/>
    </g>
   </g>
   <g id="legend_1">
    <g id="patch_7">
     <path d="M 518.195312 74.518125 
L 641 74.518125 
Q 643 74.518125 643 72.518125 
L 643 58.84 
Q 643 56.84 641 56.84 
L 518.195312 56.84 
Q 516.195312 56.84 516.195312 58.84 
L 516.195312 72.518125 
Q 516.195312 74.518125 518.195312 74.518125 
z
" style="fill: #ffffff; opacity: 0.8; stroke: #cccccc; stroke-linejoin: miter"/>
    </g>
    <g id="line2d_32">
     <path d="M 520.195312 64.938438 
L 530.195312 64.938438 
L 540.195312 64.938438 
" style="fill: none; stroke: #1f77b4; stroke-width: 1.5; stroke-linecap: square"/>
    </g>
    <g id="text_20">
     <!-- ZFC-FC Difference -->
     <g transform="translate(548.195312 68.438438) scale(0.1 -0.1)">
      <defs>
       <path id="DejaVuSans-5a" d="M 359 4666 
L 4025 4666 
L 4025 4184 
L 1075 531 
L 4097 531 
L 4097 0 
L 288 0 
L 288 481 
L 3238 4134 
L 359 4134 
L 359 4666 
z
" transform="scale(0.015625)"/>
       <path id="DejaVuSans-46" d="M 628 4666 
L 3309 4666 
L 3309 4134 
L 1259 4134 
L 1259 2759 
L 3109 2759 
L 3109 2228 
L 1259 2228 
L 1259 0 
L 628 0 
L 628 4666 
z
" transform="scale(0.015625)"/>
       <path id="DejaVuSans-43" d="M 4122 4306 
L 4122 3641 
Q 3803 3938 3442 4084 
Q 3081 4231 2675 4231 
Q 1875 4231 1450 3742 
Q 1025 3253 1025 2328 
Q 1025 1406 1450 917 
Q 1875 428 2675 428 
Q 3081 428 3442 575 
Q 3803 722 4122 1019 
L 4122 359 
Q 3791 134 3420 21 
Q 3050 -91 2638 -91 
Q 1578 -91 968 557 
Q 359 1206 359 2328 
Q 359 3453 968 4101 
Q 1578 4750 2638 4750 
Q 3056 4750 3426 4639 
Q 3797 4528 4122 4306 
z
" transform="scale(0.015625)"/>
       <path id="DejaVuSans-2d" d="M 313 2009 
L 1997 2009 
L 1997 1497 
L 313 1497 
L 313 2009 
z
" transform="scale(0.015625)"/>
       <path id="DejaVuSans-44" d="M 1259 4147 
L 1259 519 
L 2022 519 
Q 2988 519 3436 956 
Q 3884 1394 3884 2338 
Q 3884 3275 3436 3711 
Q 2988 4147 2022 4147 
L 1259 4147 
z
M 628 4666 
L 1925 4666 
Q 3281 4666 3915 4102 
Q 4550 3538 4550 2338 
Q 4550 1131 3912 565 
Q 3275 0 1925 0 
L 628 0 
L 628 4666 
z
" transform="scale(0.015625)"/>
       <path id="DejaVuSans-66" d="M 2375 4863 
L 2375 4384 
L 1825 4384 
Q 1516 4384 1395 4259 
Q 1275 4134 1275 3809 
L 1275 3500 
L 2222 3500 
L 2222 3053 
L 1275 3053 
L 1275 0 
L 697 0 
L 697 3053 
L 147 3053 
L 147 3500 
L 697 3500 
L 697 3744 
Q 697 4328 969 4595 
Q 1241 4863 1831 4863 
L 2375 4863 
z
" transform="scale(0.015625)"/>
       <path id="DejaVuSans-6e" d="M 3513 2113 
L 3513 0 
L 2938 0 
L 2938 2094 
Q 2938 2591 2744 2837 
Q 2550 3084 2163 3084 
Q 1697 3084 1428 2787 
Q 1159 2491 1159 1978 
L 1159 0 
L 581 0 
L 581 3500 
L 1159 3500 
L 1159 2956 
Q 1366 3272 1645 3428 
Q 1925 3584 2291 3584 
Q 2894 3584 3203 3211 
Q 3513 2838 3513 2113 
z
" transform="scale(0.015625)"/>
      </defs>
      <use xlink:href="#DejaVuSans-5a"/>
      <use xlink:href="#DejaVuSans-46" transform="translate(68.505859 0)"/>
      <use xlink:href="#DejaVuSans-43" transform="translate(126.025391 0)"/>
      <use xlink:href="#DejaVuSans-2d" transform="translate(195.849609 0)"/>
      <use xlink:href="#DejaVuSans-46" transform="translate(231.933594 0)"/>
      <use xlink:href="#DejaVuSans-43" transform="translate(289.453125 0)"/>
      <use xlink:href="#DejaVuSans-20" transform="translate(359.277344 0)"/>
      <use xlink:href="#DejaVuSans-44" transform="translate(391.064453 0)"/>
      <use xlink:href="#DejaVuSans-69" transform="translate(468.066406 0)"/>
      <use xlink:href="#DejaVuSans-66" transform="translate(495.849609 0)"/>
      <use xlink:href="#DejaVuSans-66" transform="translate(531.054688 0)"/>
      <use xlink:href="#DejaVuSans-65" transform="translate(566.259766 0)"/>
      <use xlink:href="#DejaVuSans-72" transform="translate(627.783203 0)"/>
      <use xlink:href="#DejaVuSans-65" transform="translate(666.646484 0)"/>
      <use xlink:href="#DejaVuSans-6e" transform="translate(728.169922 0)"/>
      <use xlink:href="#DejaVuSans-63" transform="translate(791.548828 0)"/>
      <use xlink:href="#DejaVuSans-65" transform="translate(846.529297 0)"/>
     </g>
    </g>
   </g>
  </g>
 </g>
 <defs>
  <clipPath id="pe32f1ff12e">
   <rect x="90" y="51.84" width="558" height="332.64"/>
  </clipPath>
 </defs>
</svg>
